<svg height="24" viewBox="0 0 24 24" width="24" xmlns="http://www.w3.org/2000/svg"><path d="m12.6128994 4.20970461.0942074.08318861 6 5.99999998c.3905243.3905243.3905243 1.0236893 0 1.4142136-.360484.3604839-.927715.3882135-1.3200062.0831886l-.0942074-.0831886-4.2928932-4.2921068v11.585c0 .5522847-.4477153 1-1 1-.5128358 0-.9355072-.3860402-.9932723-.8833789l-.0067277-.1166211v-11.587l-4.29289322 4.2941068c-.36048396.3604839-.92771502.3882135-1.32000622.0831886l-.09420734-.0831886c-.36048396-.360484-.3882135-.927715-.08318861-1.3200062l.08318861-.0942074 5.99999998-5.99999998c.360484-.36048396.927715-.3882135 1.3200062-.08318861z" fill="#010101"/></svg>
