<svg height="16" viewBox="0 0 16 16" width="16" xmlns="http://www.w3.org/2000/svg"><path d="m4.2843055 3.58859116.06924789.05785545 3.64644661 3.64655339 3.6464466-3.64655339c.1952622-.19526215.5118446-.19526215.7071068 0 .1735663.17356635.1928515.44299075.0578554.63785889l-.0578554.06924789-3.6465534 3.64644661 3.6465534 3.6464466c.1952621.1952622.1952621.5118446 0 .7071068-.1735664.1735663-.4429908.1928515-.6378589.0578554l-.0692479-.0578554-3.6464466-3.6465534-3.64644661 3.6465534c-.19526215.1952621-.51184463.1952621-.70710678 0-.17356635-.1735664-.1928515-.4429908-.05785545-.6378589l.05785545-.0692479 3.64655339-3.6464466-3.64655339-3.64644661c-.19526215-.19526215-.19526215-.51184463 0-.70710678.17356635-.17356635.44299075-.1928515.63785889-.05785545z" fill="#010101"/></svg>
