<svg height="24" viewBox="0 0 24 24" width="24" xmlns="http://www.w3.org/2000/svg"><path d="m6.31835559 16.0000076v-7.99999997h-1.37890493l-1.98827935 1.27734253v1.32812374l1.87109196-1.19531137h.04687496v6.58984507zm7.51952911-.0000076v-1.2109363h-3.4843717v-.0546875l1.378905-1.4023424c1.554686-1.4921861 1.9843731-2.2187479 1.9843731-3.1210908 0-1.33984245-1.0898427-2.32031027-2.6992162-2.32031027-1.58593598 0-2.71093491.98437406-2.71093491 2.50390387h1.37890494c0-.81640548.51562447-1.32812374 1.31249877-1.32812374.761718 0 1.3281237.46484331 1.3281237 1.21874884 0 .6679681-.4062496 1.1445302-1.1953114 1.9453106l-2.77734105 2.7226537v1.046874zm4.2226588.1093749c1.7109358 0 2.9570284-.9804678 2.9531403-2.332029.0038881-.9999991-.6211113-1.7187484-1.742204-1.8789045v-.0624999c.8671867-.1874999 1.4492174-.8320305 1.4453111-1.7304671.0039063-1.21874887-1.0351552-2.21484167-2.63281-2.21484167-1.554686 0-2.7578098.92578037-2.7890598 2.26562287h1.3945299c.0234375-.67187439.6484369-1.08984274 1.3867174-1.08984274.7460931 0 1.2421864.45312457 1.2382801 1.12499894.0039063.6992209-.5742182 1.1640614-1.4023424 1.1640614h-.7070306v1.1171864h.7070306c1.0117178 0 1.6132797.507812 1.6093735 1.2304676.0039062.7070306-.6093745 1.1914051-1.4648424 1.1914051-.8046867 0-1.4257799-.4179683-1.4609361-1.0703115h-1.4687486c.0390625 1.3515612 1.2460926 2.2851541 2.933591 2.2851541z" fill="#010101"/></svg>
