<svg height="16" viewBox="0 0 16 16" width="16" xmlns="http://www.w3.org/2000/svg"><path d="m12 9 2 4v1h-5v-1l2-4zm-7.5 0c1.38071187 0 2.5 1.1192881 2.5 2.5s-1.11928813 2.5-2.5 2.5-2.5-1.1192881-2.5-2.5 1.11928813-2.5 2.5-2.5zm7 1.236-1.382 2.764h2.763zm-7-.236c-.82842712 0-1.5.6715729-1.5 1.5s.67157288 1.5 1.5 1.5 1.5-.6715729 1.5-1.5-.67157288-1.5-1.5-1.5zm7-8c1.3807119 0 2.5 1.11928813 2.5 2.5s-1.1192881 2.5-2.5 2.5-2.5-1.11928813-2.5-2.5 1.1192881-2.5 2.5-2.5zm-4.5 0v5h-5v-5zm4.5 1c-.8284271 0-1.5.67157288-1.5 1.5s.6715729 1.5 1.5 1.5 1.5-.67157288 1.5-1.5-.6715729-1.5-1.5-1.5zm-5.5 0h-3v3h3z" fill="#010101"/></svg>