<svg height="24" viewBox="0 0 24 24" width="24" xmlns="http://www.w3.org/2000/svg"><path d="m11 3v2h-6v14h14v-6h2v6c0 1.1045695-.8954305 2-2 2h-14c-1.1045695 0-2-.8954305-2-2v-14c0-1.1045695.8954305-2 2-2zm11-2c.5128358 0 .9355072.38604019.9932723.88337887l.0067277.11662113v6c0 .55228475-.4477153 1-1 1-.5128358 0-.9355072-.38604019-.9932723-.88337887l-.0067277-.11662113v-3.586l-7.2928932 7.2931068c-.3905243.3905243-1.0236893.3905243-1.4142136 0-.3604839-.360484-.3882135-.927715-.0831886-1.3200062l.0831886-.0942074 7.2911068-7.2928932h-3.584c-.5128358 0-.9355072-.38604019-.9932723-.88337887l-.0067277-.11662113c0-.51283584.3860402-.93550716.8833789-.99327227l.1166211-.00672773z" fill="#010101"/></svg>
