<svg height="24" viewBox="0 0 24 24" width="24" xmlns="http://www.w3.org/2000/svg"><path d="m4.5 16.5c.82842712 0 1.5.6715729 1.5 1.5s-.67157288 1.5-1.5 1.5-1.5-.6715729-1.5-1.5.67157288-1.5 1.5-1.5zm15.5.5c.5522847 0 1 .4477153 1 1s-.4477153 1-1 1h-11c-.55228475 0-1-.4477153-1-1s.44771525-1 1-1zm-15.5-6.5c.82842712 0 1.5.6715729 1.5 1.5s-.67157288 1.5-1.5 1.5-1.5-.6715729-1.5-1.5.67157288-1.5 1.5-1.5zm15.5.5c.5522847 0 1 .4477153 1 1s-.4477153 1-1 1h-11c-.55228475 0-1-.4477153-1-1s.44771525-1 1-1zm-15.5-6.5c.82842712 0 1.5.67157288 1.5 1.5s-.67157288 1.5-1.5 1.5-1.5-.67157288-1.5-1.5.67157288-1.5 1.5-1.5zm15.5.5c.5522847 0 1 .44771525 1 1s-.4477153 1-1 1h-11c-.55228475 0-1-.44771525-1-1s.44771525-1 1-1z" fill="#010101" fill-rule="evenodd"/></svg>
