<svg height="16" viewBox="0 0 16 16" width="16" xmlns="http://www.w3.org/2000/svg"><path d="m8.49613894 1.28350796 5.99999996 3.42857143c.311575.17804286.5038611.5093863.5038611.86824315v8.41967746c0 .5522847-.4477153 1-1 1h-12c-.55228475 0-1-.4477153-1-1v-8.41967746c0-.35885685.19228606-.69020029.50386106-.86824315l6-3.42857143c.30743267-.17567581.68484521-.17567581.99227788 0zm5.50386106 5.29324315-5.03108664 4.25837549c-.52198419.441679-1.27047503.4711242-1.82266011.0883358l-.11516661-.0883358-5.03108664-4.25837549v7.42324889h12zm-6-4.425-5.78 3.302 5.45702888 4.61798919c.16312006.1380247.39259949.1552778.57230939.0517593l.07363285-.0517593 5.45702888-4.61798919z" fill="#010101"/></svg>
