<svg height="16" viewBox="0 0 16 16" width="16" xmlns="http://www.w3.org/2000/svg"><path d="m14 3c.5522847 0 1 .44771525 1 1v6c0 .5522847-.4477153 1-1 1h-1v2.1492189c0 .5522848-.4477153 1-1 1-.3037837 0-.5910966-.1380897-.7808688-.3753049l-2.2191312-2.773914h-5c-.55228475 0-1-.4477153-1-1v-6c0-.55228475.44771525-1 1-1zm0 1h-10v6h5.48062485l2.51937515 3.1492189v-3.1492189h2zm-4-3v1h-7.5c-.24545989 0-.44960837.17687516-.49194433.41012437l-.00805567.08987563v5.5h-1v-5.5c0-.77969612.59488808-1.42044868 1.35553999-1.49313342l.14446001-.00686658z" fill="#010101"/></svg>
