<svg height="24" viewBox="0 0 24 24" width="24" xmlns="http://www.w3.org/2000/svg"><path d="m6.70710678 14.2928932c.36048396.360484.3882135.927715.08318861 1.3200062l-.08318861.0942074c-.36048396.3604839-.92771502.3882135-1.32000622.0831886l-.09420734-.0831886-3-3c-.36048396-.360484-.3882135-.927715-.08318861-1.3200062l.08318861-.0942074 3-2.99999998c.39052429-.39052429 1.02368927-.39052429 1.41421356 0 .36048396.36048396.3882135.92771502.08318861 1.32000622l-.08318861.09420734-1.29310678 1.29289322h5.586v-5.586l-1.29289322 1.29310678c-.36048396.36048396-.92771502.3882135-1.32000622.08318861l-.09420734-.08318861c-.36048396-.36048396-.3882135-.92771502-.08318861-1.32000622l.08318861-.09420734 2.99999998-3c.360484-.36048396.927715-.3882135 1.3200062-.08318861l.0942074.08318861 3 3c.3905243.39052429.3905243 1.02368927 0 1.41421356-.360484.36048396-.927715.3882135-1.3200062.08318861l-.0942074-.08318861-1.2928932-1.29110678v5.584h5.585l-1.2921068-1.29289322c-.3604839-.36048396-.3882135-.92771502-.0831886-1.32000622l.0831886-.09420734c.360484-.36048396.927715-.3882135 1.3200062-.08318861l.0942074.08318861 3 2.99999998c.3604839.360484.3882135.927715.0831886 1.3200062l-.0831886.0942074-3 3c-.3905243.3905243-1.0236893.3905243-1.4142136 0-.3604839-.360484-.3882135-.927715-.0831886-1.3200062l.0831886-.0942074 1.2921068-1.2928932h-5.585v5.584l1.2928932-1.2911068c.360484-.3604839.927715-.3882135 1.3200062-.0831886l.0942074.0831886c.3604839.360484.3882135.927715.0831886 1.3200062l-.0831886.0942074-3 3c-.360484.3604839-.927715.3882135-1.3200062.0831886l-.0942074-.0831886-2.99999998-3c-.39052429-.3905243-.39052429-1.0236893 0-1.4142136.36048396-.3604839.92771502-.3882135 1.32000622-.0831886l.09420734.0831886 1.29289322 1.2931068v-5.586h-5.586z" fill="#010101"/></svg>
