<svg height="24" viewBox="0 0 24 24" width="24" xmlns="http://www.w3.org/2000/svg"><path d="m14 2v4h-2v-2h-7v16h7v-8h2v10h-9c-1.1045695 0-2-.8954305-2-2v-16c0-1.1045695.8954305-2 2-2zm4.6128994 2.20970461.0942074.08318861 4 4c.3604839.36048396.3882135.92771502.0831886 1.32000622l-.0831886.09420734-4 4.00000002c-.3905243.3905243-1.0236893.3905243-1.4142136 0-.3604839-.360484-.3882135-.927715-.0831886-1.3200062l.0831886-.0942074 2.2921068-2.2928932h-11.585c-.55228475 0-1-.44771525-1-1 0-.51283584.38604019-.93550716.88337887-.99327227l.11662113-.00672773h11.585l-2.2921068-2.29289322c-.3604839-.36048396-.3882135-.92771502-.0831886-1.32000622l.0831886-.09420734c.360484-.36048396.927715-.3882135 1.3200062-.08318861z" fill="#010101"/></svg>
