<svg height="24" viewBox="0 0 24 24" width="24" xmlns="http://www.w3.org/2000/svg"><path d="m12 2c5.5228475 0 10 4.4771525 10 10s-4.4771525 10-10 10-10-4.4771525-10-10 4.4771525-10 10-10zm0 2c-4.418278 0-8 3.581722-8 8s3.581722 8 8 8 8-3.581722 8-8-3.581722-8-8-8zm0 12c.5522847 0 1 .4477153 1 1s-.4477153 1-1 1-1-.4477153-1-1 .4477153-1 1-1zm0-10c2.209139 0 4 1.790861 4 4 0 1.8074774-1.1988408 3.3349504-2.8447471 3.8306439l-.1552529.0423561v1.127h-2v-3h1c1.1045695 0 2-.8954305 2-2s-.8954305-2-2-2c-1.0543618 0-1.9181651.81587779-1.9945143 1.85073766l-.0054857.14926234h-2c0-2.209139 1.790861-4 4-4z" fill="#010101"/></svg>
