<svg height="24" viewBox="0 0 24 24" width="24" xmlns="http://www.w3.org/2000/svg"><path d="m17.1128994 4.70970461.0942074.08318861 4.5 4.5c.3604839.36048396.3882135.92771498.0831886 1.32000618l-.0831886.0942074-4.5 4.5c-.3905243.3905243-1.0236893.3905243-1.4142136 0-.3604839-.360484-.3882135-.927715-.0831886-1.3200062l.0831886-.0942074 2.7911068-2.7928932h-10.584c-1.65685425 0-3 1.3431458-3 3 0 1.5976809 1.24891996 2.9036609 2.82372721 2.9949073l.17627279.0050927h2c.5522847 0 1 .4477153 1 1 0 .5128358-.3860402.9355072-.8833789.9932723l-.1166211.0067277h-2c-2.76142375 0-5-2.2385763-5-5 0-2.6887547 2.12230671-4.88181811 4.78311038-4.99538049l.21688962-.00461951h10.586l-2.7931068-2.79289322c-.3604839-.36048396-.3882135-.92771502-.0831886-1.32000622l.0831886-.09420734c.360484-.36048396.927715-.3882135 1.3200062-.08318861z" fill="#010101"/></svg>
