<svg height="16" viewBox="0 0 16 16" width="16" xmlns="http://www.w3.org/2000/svg"><path d="m5.611 5.211-4.34029477.63107753-.08403197.01933156c-.34712222.11116346-.46863619.56490908-.19307472.83351513l3.14040146 3.06007578-.74130093 4.3235964-.00752687.080277c-.00564127.3674654.39064215.6268003.7330016.4468113l3.8808262-2.0416847 3.8828262 2.0416847.074022.0319654c.3477371.1189182.7168376-.1778308.6514527-.5590537l-.7423009-4.3235964 3.1414015-3.06007578.0566204-.06503231c.2154876-.29396645.0470895-.73247849-.3337271-.78781438l-4.3412948-.63107753-1.93963196-3.93228286c-.18340685-.37162285-.71332923-.37162285-.89673608 0z" fill="#010101"/></svg>
