<svg height="16" viewBox="0 0 16 16" width="16" xmlns="http://www.w3.org/2000/svg"><path d="m3.2658127 5.38721514.81416123.81298472c-.03962625.19526485-.06502864.3956943-.07507862.6001598l-.00489531.19964034v2.33333333l-1.5 1.99966667v.667h7.37844661l.99999999 1-.4285439.0004345c-.231803 1.1409037-1.24057725 1.9995655-2.4499027 1.9995655s-2.21809967-.8586618-2.44990271-1.9995655l-4.05009729-.0004345v-2l1.5-2v-2c0-.56431023.09348493-1.10678588.2658127-1.61278486zm-1.41225931-4.24076853 13.00000001 12.99999999-.7071068.7071068-12.99999999-13.00000001zm7.55944661 11.85355339h-2.827l.01883645.0520151c.20296783.5125531.68021461.8866048 1.25070354.9411183l.14446001.0068666c.6335031 0 1.17528173-.3927191 1.39516355-.9479849zm-.913-12 .00070198 1.02475737c2.52632482.25118732 4.49929802 2.38280869 4.49929802 4.97524263v2l1.5 2-.0005534 1.378-1-1 .0005534-.045-1.5-1.99966667v-2.33333333c0-2.209139-1.790861-4-4-4-.81814631 0-1.57892314.24562793-2.21260969.66716298l-.71868363-.71822819c.69673223-.50502227 1.52885079-.83470199 2.43159348-.92427696l-.00030016-1.02465783z" fill="#010101"/></svg>
