<svg height="24" viewBox="0 0 24 24" width="24" xmlns="http://www.w3.org/2000/svg"><path d="m4.70710678 3.29289322 16.00000002 15.99999998-1.4142136 1.4142136-15.99999998-16.00000002zm.08940146 4.33184774 1.41713995 1.41710873c-1.32580135.96096611-2.21364819 2.08485381-2.21364819 2.95815031 0 1.9042533 4.22147278 5 8 5 .637506 0 1.2876209-.0881229 1.9279427-.2437785l1.6167887 1.6168918c-1.1349303.394601-2.3398308.6268867-3.5447314.6268867-5 0-10-4-10-7 0-1.4105904 1.10542522-3.04226592 2.79650824-4.37525904zm7.20349176-2.62474096c5 0 10 4 10 7 0 1.4105904-1.1054252 3.0422659-2.7965082 4.375259l-1.4161372-1.4178356c1.3252462-.9608059 2.2126454-2.084347 2.2126454-2.9574234 0-1.9042533-4.2214728-5-8-5-.637506 0-1.2876209.08812293-1.9279427.24377847l-1.61678872-1.61689177c1.13493028-.39460104 2.33983082-.6268867 3.54473142-.6268867zm-2.995 6.8328932 3.1623215 3.1625195c-.0553869.0030448-.111174.0045873-.1673215.0045873-1.6568542 0-3-1.3431458-3-3zm2.995-2.8328932c1.6568542 0 3 1.3431458 3 3l-.006.1658932-3.1603827-3.16135734c.0550784-.00301078.1105525-.00453586.1663827-.00453586z" fill="#010101"/></svg>
