<svg height="16" viewBox="0 0 16 16" width="16" xmlns="http://www.w3.org/2000/svg"><path d="m7.35355339 2.64644661c.17356635.17356635.1928515.44299075.05785545.63785889l-.05785545.06924789-4.14655339 4.14644661h10.793c.2761424 0 .5.22385763.5.5 0 .24545989-.1768752.44960837-.4101244.49194433l-.0898756.00805567h-10.793l4.14655339 4.1464466c.17356635.1735664.1928515.4429908.05785545.6378589l-.05785545.0692479c-.17356635.1735663-.44299075.1928515-.63785889.0578554l-.06924789-.0578554-5-5.00000001c-.17356635-.17356635-.1928515-.44299075-.05785545-.63785889l.05785545-.06924789 5-5c.19526215-.19526215.51184463-.19526215.70710678 0z" fill="#010101"/></svg>
