<svg xmlns="http://www.w3.org/2000/svg" width="16" height="16" viewBox="0 0 16 16"><path fill="#010101" d="M8,1 C11.8659932,1 15,4.13400675 15,8 C15,11.8659932 11.8659932,15 8,15 C4.13400675,15 1,11.8659932 1,8 C1,4.13400675 4.13400675,1 8,1 Z M2,8 C2,11.3137085 4.6862915,14 8,14 C9.47704791,14 10.8294388,13.4662797 11.8748373,12.5811745 L3.41882553,4.12516271 C2.53372027,5.17056123 2,6.52295209 2,8 Z M8,2 C6.52295209,2 5.17056123,2.53372027 4.12516271,3.41882553 L12.5811745,11.8748373 C13.4662797,10.8294388 14,9.47704791 14,8 C14,4.6862915 11.3137085,2 8,2 Z"/></svg>