<svg height="16" viewBox="0 0 16 16" width="16" xmlns="http://www.w3.org/2000/svg"><path d="m8 2c3.3137085 0 6 2.6862915 6 6s-2.6862915 6-6 6-6-2.6862915-6-6 2.6862915-6 6-6zm-5 6c0 2.7614237 2.23857625 5 5 5 1.20065927 0 2.302475-.4231997 3.1644179-1.1285699l-7.03584796-7.03584804c-.70537025.86194298-1.12856994 1.96375867-1.12856994 3.16441794zm5-5c-1.20065927 0-2.30247496.42319969-3.16441794 1.12856994l7.03584804 7.03584796c.7053702-.8619429 1.1285699-1.96375863 1.1285699-3.1644179 0-2.76142375-2.2385763-5-5-5z" fill="#010101"/></svg>
