<svg height="16" viewBox="0 0 16 16" width="16" xmlns="http://www.w3.org/2000/svg"><path d="m8 1c3.8659932 0 7 3.13400675 7 7 0 3.7854517-3.0047834 6.8690987-6.75935025 6.995941l-.24064975.004059v-1c3.3137085 0 6-2.6862915 6-6s-2.6862915-6-6-6c-3.23839694 0-5.87757176 2.56557489-5.99586153 5.77506174l-.00413847.22493826h-1c0-3.86599325 3.13400675-7 7-7zm-3.85355339 7.14644661.70710678.70710678-2.14666017 2.14644661h4.29310678v1h-4.29310678l2.14666017 2.1464466-.70710678.7071068-3.35355339-3.3535534zm4.35355339-4.64644661v4.293l2.8535534 2.8534466-.7071068.7071068-3.1464466-3.14644662v-4.70710678z" fill="#010101"/></svg>