<svg height="16" viewBox="0 0 16 16" width="16" xmlns="http://www.w3.org/2000/svg"><path d="m8 1c4 3.12419433 6 5.790861 6 8 0 3.3137085-2.6862915 6-6 6s-6-2.6862915-6-6c0-2.209139 2-4.87580567 6-8zm0 1.278-.04988035.0409699c-3.32787679 2.71407973-4.95011965 4.98015362-4.95011965 6.6810301 0 2.7614237 2.23857625 5 5 5 1.63527922 0 3.0872034-.7850361 3.9994649-1.9988005l-3.9994649-.0011995v-1l4.5837237.0005324c.2677428-.6126027.4162763-1.28922163.4162763-2.0005324h-5v-1l4.833618.00096916c-.1932468-.6119062-.5553593-1.27986212-1.0890988-1.99998733l-3.7445192-.00098183v-1l2.9225155.00087837c-.6815557-.75868964-1.53262996-1.56683176-2.55590431-2.42065808z" fill="#010101"/></svg>
