<svg height="24" viewBox="0 0 24 24" width="24" xmlns="http://www.w3.org/2000/svg"><path d="m4.65038829 15.1210936c.94140535 0 1.50390481-.4414058 1.76171707-.9453116h.04687495v.824218h1.3593737v-4.0156212c0-1.58593596-1.29296751-2.062498-2.43749767-2.062498-1.26171755 0-2.23046662.56249946-2.54296633 1.6562484l1.32031124.1874998c.14062487-.4101558.53906199-.761718 1.23046758-.761718.65624938 0 1.01562403.3359372 1.01562403.9257804v.0234375c0 .4062496-.42578084.4257808-1.48437358.5390619-1.16406139.1249999-2.27734158.4726558-2.27734158 1.8242171 0 1.1796863.86328043 1.8046857 2.00781059 1.8046857zm.36718715-1.0390615c-.58984319 0-1.01171779-.269531-1.01171779-.7890617 0-.5429683.4726558-.7695305 1.1054677-.8593742.37109339-.0507812 1.11328018-.1445311 1.29687376-.2929685v.7070306c0 .6679681-.53906199 1.2343738-1.39062367 1.2343738zm7.48046766 1.0234365c1.4140611 0 2.4726539-1.1210926 2.4726539-3.0976532 0-1.9999981-1.0898427-3.0859346-2.4765602-3.0859346-1.0585927 0-1.4999985.63671814-1.7148421 1.07031148h-.0585937v-2.99218465h-1.41406113v7.99999997h1.39062363v-.9453192h.0820312c.2226561.4374996.6874994 1.0507802 1.7187484 1.0507802zm-.3945309-1.1601551c-.9023429 0-1.4101549-.7812492-1.4101549-1.9453106s.5-1.917967 1.4101549-1.917967c.9414054 0 1.4257799.8007805 1.4257799 1.917967 0 1.1249989-.492187 1.9453106-1.4257799 1.9453106zm6.6914065 1.1718739c1.507811 0 2.4687476-.8945304 2.57031-2.1679667h-1.3515612c-.1210936.6445306-.5859369 1.015624-1.2070301 1.015624-.8828116 0-1.4531236-.7382805-1.4531236-1.9648418 0-1.2109364.5820307-1.9374982 1.4531236-1.9374982.6796869 0 1.0976552.4374996 1.2070301 1.015624h1.3515612c-.0976561-1.30077997-1.1132802-2.1562479-2.5781225-2.1562479-1.7578108 0-2.8671848 1.26953-2.8671848 3.1015595 0 1.8164046 1.0820302 3.0937471 2.8749973 3.0937471z" fill="#010101"/></svg>
