<svg height="24" viewBox="0 0 24 24" width="24" xmlns="http://www.w3.org/2000/svg"><path d="m20 14c.5128358 0 .9355072.3860402.9932723.8833789l.0067277.1166211v3c0 1.5976809-1.24892 2.9036609-2.8237272 2.9949073l-.1762728.0050927h-12c-1.59768088 0-2.90366088-1.24892-2.99490731-2.8237272l-.00509269-.1762728v-3c0-.5522847.44771525-1 1-1 .51283584 0 .93550716.3860402.99327227.8833789l.00672773.1166211v3c0 .5128358.38604019.9355072.88337887.9932723l.11662113.0067277h12c.5128358 0 .9355072-.3860402.9932723-.8833789l.0067277-.1166211v-3c0-.5522847.4477153-1 1-1zm-8-11c.5128358 0 .9355072.38604019.9932723.88337887l.0067277.11662113v9.584l2.2928932-2.2911068c.360484-.3604839.927715-.3882135 1.3200062-.0831886l.0942074.0831886c.3604839.360484.3882135.927715.0831886 1.3200062l-.0831886.0942074-4 4c-.360484.3604839-.927715.3882135-1.3200062.0831886l-.0942074-.0831886-3.99999998-4c-.39052429-.3905243-.39052429-1.0236893 0-1.4142136.36048396-.3604839.92771502-.3882135 1.32000622-.0831886l.09420734.0831886 2.29289322 2.2911068v-9.584c0-.55228475.4477153-1 1-1z" fill="#010101"/></svg>
