<svg height="24" viewBox="0 0 24 24" width="24" xmlns="http://www.w3.org/2000/svg"><path d="m9.5 16c.8284271 0 1.5.6715729 1.5 1.5s-.6715729 1.5-1.5 1.5c-.82842712 0-1.5-.6715729-1.5-1.5s.67157288-1.5 1.5-1.5zm5 0c.8284271 0 1.5.6715729 1.5 1.5s-.6715729 1.5-1.5 1.5-1.5-.6715729-1.5-1.5.6715729-1.5 1.5-1.5zm-5-6c.8284271 0 1.5.6715729 1.5 1.5s-.6715729 1.5-1.5 1.5c-.82842712 0-1.5-.6715729-1.5-1.5s.67157288-1.5 1.5-1.5zm5 0c.8284271 0 1.5.6715729 1.5 1.5s-.6715729 1.5-1.5 1.5-1.5-.6715729-1.5-1.5.6715729-1.5 1.5-1.5zm-5-6c.8284271 0 1.5.67157288 1.5 1.5s-.6715729 1.5-1.5 1.5c-.82842712 0-1.5-.67157288-1.5-1.5s.67157288-1.5 1.5-1.5zm5 0c.8284271 0 1.5.67157288 1.5 1.5s-.6715729 1.5-1.5 1.5-1.5-.67157288-1.5-1.5.6715729-1.5 1.5-1.5z" fill="#010101" fill-rule="evenodd"/></svg>
