<svg height="24" viewBox="0 0 24 24" width="24" xmlns="http://www.w3.org/2000/svg"><path d="m14.2071068 6.79289322c1.715885 1.71588503 1.7695064 4.46456828.1608642 6.24500318l-.1608642.1692104-.5.5-1.4142136-1.4142136.5-.5c.9901876-.9901876.9901876-2.59559884 0-3.58578642-.9471359-.94713595-2.4571608-.98831577-3.45324367-.12353947l-.13254275.12353947-5 5.00000002c-.99018758.9901876-.99018758 2.5955988 0 3.5857864.94713595.947136 2.45716087.9883158 3.45324369.1235395l.13254275-.1235395.5-.5 1.41421356 1.4142136-.5.5c-1.77123617 1.7712361-4.64297739 1.7712361-6.41421356 0-1.71588504-1.7158851-1.76950644-4.4645683-.16086422-6.2450032l.16086422-.1692104 5-4.99999998c1.77123617-1.77123617 4.64297738-1.77123617 6.41421358 0zm7-2c1.715885 1.71588503 1.7695064 4.46456828.1608642 6.24500318l-.1608642.1692104-5 5c-1.7712362 1.7712361-4.6429774 1.7712361-6.41421358 0-1.71588504-1.7158851-1.76950644-4.4645683-.16086422-6.24500322l.16086422-.16921036.49999998-.5 1.4142136 1.41421358-.5.5c-.9901876.9901876-.9901876 2.5955988 0 3.5857864.9471359.947136 2.4571608.9883158 3.4532437.1235395l.1325427-.1235395 5-4.99999998c.9901876-.99018758.9901876-2.59559886 0-3.58578644-.9471359-.94713595-2.4571608-.98831577-3.4532437-.12353947l-.1325427.12353947-.5.5-1.4142136-1.41421356.5-.5c1.7712362-1.77123617 4.6429774-1.77123617 6.4142136 0z" fill="#010101"/></svg>
