<svg height="16" viewBox="0 0 16 16" width="16" xmlns="http://www.w3.org/2000/svg"><path d="m8 1c3.3137085 0 6 2.6862915 6 6 0 4-6 9-6 9l-.39658955-.3459303c-1.33812787-1.1980912-5.60341045-5.2815207-5.60341045-8.6540697 0-3.3137085 2.6862915-6 6-6zm0 1c-2.76142375 0-5 2.23857625-5 5 0 .50078188.12554008 1.06571224.37292114 1.68416488.45270186 1.13175465 1.28485152 2.37997912 2.38633546 3.66504372.50520405.5894048 1.04094483 1.1564757 1.58275428 1.6881313l.49531946.4748558.16166966.1508043.25187647-.2337632c.67914317-.641413 1.35836187-1.3432723 1.98986693-2.0800282 1.1014839-1.2850646 1.9336336-2.53328907 2.3863355-3.66504372.247381-.61845264.3729211-1.183383.3729211-1.68416488 0-2.76142375-2.2385763-5-5-5zm0 2.5c1.38071187 0 2.5 1.11928813 2.5 2.5s-1.11928813 2.5-2.5 2.5-2.5-1.11928813-2.5-2.5 1.11928813-2.5 2.5-2.5zm0 1c-.82842712 0-1.5.67157288-1.5 1.5s.67157288 1.5 1.5 1.5 1.5-.67157288 1.5-1.5-.67157288-1.5-1.5-1.5z" fill="#010101"/></svg>
