<svg height="16" viewBox="0 0 16 16" width="16" xmlns="http://www.w3.org/2000/svg"><path d="m11.7843055 4.08859116.0692479.05785545 3 3c.1735663.17356635.1928515.44299075.0578554.63785889l-.0578554.06924789-3 3.00000001c-.1952622.1952621-.5118446.1952621-.7071068 0-.1735663-.1735664-.1928515-.4429908-.0578554-.6378589l.0578554-.0692479 2.1465534-2.1474466-9.293.001c-1.1045695 0-2 .8954305-2 2 0 1.0543618.81587779 1.9181651 1.85073766 1.9945143l.14926234.0054857h2.5c.27614237 0 .5.2238576.5.5 0 .2454599-.17687516.4496084-.41012437.4919443l-.08987563.0080557h-2.5c-1.65685425 0-3-1.3431458-3-3 0-1.59768088 1.24891996-2.90366088 2.82372721-2.99490731l.17627279-.00509269 9.293-.001-2.1465534-2.14544661c-.1735663-.17356635-.1928515-.44299075-.0578554-.63785889l.0578554-.06924789c.1735664-.17356635.4429908-.1928515.6378589-.05785545z" fill="#010101"/></svg>
