<svg height="24" viewBox="0 0 24 24" width="24" xmlns="http://www.w3.org/2000/svg"><path d="m17 2c2.209139 0 4 1.790861 4 4s-1.790861 4-4 4c-1.0934122 0-2.0843568-.43871618-2.8064077-1.1497225l-3.3570438 2.0142617c.1063637.3599454.1634515.7410363.1634515 1.1354608s-.0570878.7755154-.1634515 1.1354608l3.3570438 2.0142617c.7220509-.7110063 1.7129955-1.1497225 2.8064077-1.1497225 2.209139 0 4 1.790861 4 4s-1.790861 4-4 4-4-1.790861-4-4c0-.3944245.0570878-.7755154.1634515-1.1354608l-3.3570438-2.0142617c-.72205089.7110063-1.71299547 1.1497225-2.8064077 1.1497225-2.209139 0-4-1.790861-4-4s1.790861-4 4-4c1.09341223 0 2.08435681.43871618 2.8064077 1.1497225l3.3570438-2.01426174c-.1063637-.35994536-.1634515-.74103627-.1634515-1.13546076 0-2.209139 1.790861-4 4-4zm0 14c-1.1045695 0-2 .8954305-2 2s.8954305 2 2 2 2-.8954305 2-2-.8954305-2-2-2zm-10-6c-1.1045695 0-2 .8954305-2 2s.8954305 2 2 2 2-.8954305 2-2-.8954305-2-2-2zm10-6c-1.1045695 0-2 .8954305-2 2s.8954305 2 2 2 2-.8954305 2-2-.8954305-2-2-2z" fill="#010101"/></svg>
