<svg height="24" viewBox="0 0 24 24" width="24" xmlns="http://www.w3.org/2000/svg"><path d="m13 1 .0010101 2.07103341c3.3918017.48566424 5.9989899 3.40284469 5.9989899 6.92896659v2l2 3v3h-5c0 2.209139-1.790861 4-4 4s-4-1.790861-4-4h-5v-3l2-3v-2c0-3.52646906 2.60770164-6.44387676 5.9999918-6.92910996l.0000082-2.07089004zm1 17h-4c0 1.1045695.8954305 2 2 2 1.0543618 0 1.9181651-.8158778 1.9945143-1.8507377zm-2-13c-2.6887547 0-4.88181811 2.12230671-4.99538049 4.78311038l-.00461951.21688962v2.6055513l-2 2.9994487v.395h14v-.393l-2-3.0014487v-2.6055513c0-2.76142375-2.2385763-5-5-5z" fill="#010101"/></svg>
