<svg xmlns="http://www.w3.org/2000/svg" width="24" height="24" viewBox="0 0 24 24">
  <path fill="#010101" d="M12,1 C13.485909,1 14.7195035,2.08028648 14.9582373,3.49831306 C18.4758772,4.72146349 21,8.06596151 21,12 C21,16.9705627 16.9705627,21 12,21 C10.6106094,21 9.29475222,20.6851657 8.11987787,20.1229465 C7.57753424,20.6646132 6.82793401,21 6,21 C4.34314575,21 3,19.6568542 3,18 C3,17.172066 3.33538681,16.4224658 3.87771042,15.8796493 C3.31483428,14.7052478 3,13.3893906 3,12 C3,8.06596151 5.52412284,4.72146349 9.04120959,3.49766486 C9.28049649,2.08028648 10.514091,1 12,1 Z M14.5990769,5.4983946 L14.5329361,5.60826455 C14.0005963,6.44492446 13.0651206,7 12,7 C10.8890409,7 9.91912552,6.39611995 9.40059634,5.49870231 C6.82184799,6.53033375 5,9.05240918 5,12 C5,13.0805988 5.24485372,14.104009 5.68210618,15.0177755 L5.82372721,15.0050927 L5.82372721,15.0050927 L6,15 C7.65685425,15 9,16.3431458 9,18 C9,18.1074014 8.99435617,18.2134846 8.9833489,18.3179691 C9.89599104,18.7551463 10.9194012,19 12,19 C15.8659932,19 19,15.8659932 19,12 C19,9.05240918 17.178152,6.53033375 14.5990769,5.4983946 Z M12,8 C14.209139,8 16,9.790861 16,12 C16,14.209139 14.209139,16 12,16 C9.790861,16 8,14.209139 8,12 C8,9.790861 9.790861,8 12,8 Z M12,10 C10.8954305,10 10,10.8954305 10,12 C10,13.1045695 10.8954305,14 12,14 C13.1045695,14 14,13.1045695 14,12 C14,10.8954305 13.1045695,10 12,10 Z"/>
</svg>
