<svg height="16" viewBox="0 0 16 16" width="16" xmlns="http://www.w3.org/2000/svg"><path d="m8.2843055 1.58859116.06924789.05785545 5.00000001 5c.1952621.19526215.1952621.51184463 0 .70710678-.1735664.17356635-.4429908.1928515-.6378589.05785545l-.0692479-.05785545-4.1464466-4.14655339v10.793c0 .2761424-.22385763.5-.5.5-.24545989 0-.44960837-.1768752-.49194433-.4101244l-.00805567-.0898756v-10.793l-4.14644661 4.14655339c-.17356635.17356635-.44299075.1928515-.63785889.05785545l-.06924789-.05785545c-.17356635-.17356635-.1928515-.44299075-.05785545-.63785889l.05785545-.06924789 5-5c.17356635-.17356635.44299075-.1928515.63785889-.05785545z" fill="#010101"/></svg>
