<svg width="24" height="24" viewBox="0 0 24 24" fill="none" xmlns="http://www.w3.org/2000/svg">
<path fill-rule="evenodd" clip-rule="evenodd" d="M5 12C5 8.13401 8.13401 5 12 5H13C16.3137 5 19 7.68629 19 11V13C19 14.1046 18.1046 15 17 15C15.8954 15 15 14.1046 15 13V12.5V11.5V7H13V8.33682C12.5454 8.12085 12.0368 8 11.5 8C9.567 8 8 9.567 8 11.5V12.5C8 14.433 9.567 16 11.5 16C12.3256 16 13.0844 15.7142 13.6829 15.236C14.4017 16.3003 15.6191 17 17 17C19.2091 17 21 15.2091 21 13V11C21 6.58172 17.4183 3 13 3H12C7.02944 3 3 7.02944 3 12C3 16.9706 7.02944 21 12 21H17C17.5523 21 18 20.5523 18 20C18 19.4477 17.5523 19 17 19H12C8.13401 19 5 15.866 5 12ZM13 12.5V11.5C13 10.6716 12.3284 10 11.5 10C10.6716 10 10 10.6716 10 11.5V12.5C10 13.3284 10.6716 14 11.5 14C12.3284 14 13 13.3284 13 12.5Z" fill="#010101"/>
</svg>
