<svg height="24" viewBox="0 0 24 24" width="24" xmlns="http://www.w3.org/2000/svg"><path d="m10.5 2c2.4142733 0 4.3844891 1.90123652 4.495102 4.2881643l.004898.2118357v8.5c0 1.6568542-1.3431458 3-3 3-1.5976809 0-2.90366088-1.24892-2.99490731-2.8237272l-.00509269-.1762728v-7c0-.55228475.44771525-1 1-1 .5128358 0 .9355072.38604019.9932723.88337887l.0067277.11662113v7c0 .5522847.4477153 1 1 1 .5128358 0 .9355072-.3860402.9932723-.8833789l.0067277-.1166211v-8.5c0-1.38071187-1.1192881-2.5-2.5-2.5-1.3254834 0-2.41003867 1.03153594-2.49468232 2.33562431l-.00531768.16437569v9.5c0 2.209139 1.790861 4 4 4 2.1421954 0 3.8910789-1.6839685 3.9951047-3.8003597l.0048953-.1996403v-8c0-.55228475.4477153-1 1-1 .5128358 0 .9355072.38604019.9932723.88337887l.0067277.11662113v8c0 3.3137085-2.6862915 6-6 6-3.23839694 0-5.87757176-2.5655749-5.99586153-5.7750617l-.00413847-.2249383v-9.5c0-2.48528137 2.01471863-4.5 4.5-4.5z" fill="#010101"/></svg>
