<svg height="16" viewBox="0 0 16 16" width="16" xmlns="http://www.w3.org/2000/svg"><path d="m11.5 2c.2761424 0 .5.22385763.5.5v1.5h1c.5522847 0 1 .44771525 1 1v8c0 .5522847-.4477153 1-1 1h-10c-.55228475 0-1-.4477153-1-1v-8c0-.55228475.44771525-1 1-1h1v-1.5c0-.27614237.22385763-.5.5-.5s.5.22385763.5.5v1.5h6v-1.5c0-.27614237.2238576-.5.5-.5zm1.5 4h-10v7h10zm-8 4c.55228475 0 1 .4477153 1 1s-.44771525 1-1 1-1-.4477153-1-1 .44771525-1 1-1zm3 0c.55228475 0 1 .4477153 1 1s-.44771525 1-1 1-1-.4477153-1-1 .44771525-1 1-1zm-3-3c.55228475 0 1 .44771525 1 1s-.44771525 1-1 1-1-.44771525-1-1 .44771525-1 1-1zm3 0c.55228475 0 1 .44771525 1 1s-.44771525 1-1 1-1-.44771525-1-1 .44771525-1 1-1zm3 0c.5522847 0 1 .44771525 1 1s-.4477153 1-1 1-1-.44771525-1-1 .4477153-1 1-1z" fill="#010101"/></svg>
