<svg width="24" height="24" viewBox="0 0 24 24" fill="none" xmlns="http://www.w3.org/2000/svg">
<path fill-rule="evenodd" clip-rule="evenodd" d="M20 12C20 16.4183 16.4183 20 12 20C7.58172 20 4 16.4183 4 12C4 7.58172 7.58172 4 12 4C16.4183 4 20 7.58172 20 12ZM22 12C22 17.5228 17.5228 22 12 22C6.47715 22 2 17.5228 2 12C2 6.47715 6.47715 2 12 2C17.5228 2 22 6.47715 22 12ZM16.7071 10.7071C17.0976 10.3166 17.0976 9.68342 16.7071 9.29289C16.3166 8.90237 15.6834 8.90237 15.2929 9.29289L11 13.5858L9.20711 11.7929C8.81658 11.4024 8.18342 11.4024 7.79289 11.7929C7.40237 12.1834 7.40237 12.8166 7.79289 13.2071L10.2929 15.7071C10.6834 16.0976 11.3166 16.0976 11.7071 15.7071L16.7071 10.7071Z" fill="#010101"/>
</svg>
