<svg height="16" viewBox="0 0 16 16" width="16" xmlns="http://www.w3.org/2000/svg"><path d="m3.86789498 11v-5.81817627h-1.00283996l-1.44602134.92897639v.96590817l1.36079415-.86931736h.03409088v4.79260907zm5.46874845 0v-.880681h-2.53408849v-.0397727l1.00283995-1.01988536c1.13068074-1.08522624 1.44318044-1.61363482 1.44318044-2.2698842 0-.97443089-.79261288-1.68749839-1.96306631-1.68749839-1.15340799 0-1.97158903.71590841-1.97158903 1.82102099h1.00283996c0-.59374943.37499964-.96590817.95454454-.96590817.55397675 0 .96590817.33806786.96590817.88636279 0 .48579499-.29545426.83238557-.86931735 1.41477138l-2.01988444 1.98011176v.7613629zm3.07102457.0795454c1.244317 0 2.1505661-.7130675 2.1477384-1.69602113.0028277-.72727203-.4517173-1.24999881-1.2670575-1.36647597v-.0454545c.6306813-.13636351 1.0539763-.60511306 1.0511354-1.25852153.0028409-.88636279-.7528402-1.61079392-1.9147709-1.61079392-1.1306807 0-2.0056799.67329481-2.0284071 1.6477257h1.0142035c.0170455-.48863589.4715905-.79261288 1.0085218-.79261288.5426131 0 .9034082.32954514.9005673.81818104.0028409.50852224-.4176132.8465901-1.0198854.8465901h-.514204v.81249923h.514204c.7357948 0 1.1732944.36931783 1.1704535.89488551.0028409.51420405-.4431814.86647645-1.0653399.86647645-.5852268 0-1.0369309-.30397699-1.062499-.77840835h-1.0681808c.028409.98295365.9062491 1.66193025 2.1335207 1.66193025z" fill="#010101"/></svg>
