<svg height="24" viewBox="0 0 24 24" width="24" xmlns="http://www.w3.org/2000/svg"><path d="m4.09721513 8.60019301c-.06414606.45823146-.09721513.92515738-.09721513 1.39980699 0 .7767286.08855526 1.532774.25612031 2.2585907-.16644453.5514625-.25612031 1.1359635-.25612031 1.7414093 0 3.3137085 2.6862915 6 6 6 .6054314 0 1.189919-.0896715 1.7409057-.2564576.7256248.1678209 1.4820084.2564576 2.2590943.2564576.4753456 0 .9429448-.0331661 1.4006098-.0973105-1.4229446 1.3022221-3.3189258 2.0973105-5.4006098 2.0973105-4.418278 0-8-3.581722-8-8 0-2.0811854.79470752-3.9767568 2.09721513-5.39980699zm9.90278487-6.60019301c4.418278 0 8 3.581722 8 8s-3.581722 8-8 8-8-3.581722-8-8 3.581722-8 8-8zm0 2c-3.3137085 0-6 2.6862915-6 6s2.6862915 6 6 6 6-2.6862915 6-6-2.6862915-6-6-6zm0 2c.5128358 0 .9355072.38604019.9932723.88337887l.0067277.11662113v2h2c.5522847 0 1 .44771525 1 1 0 .5128358-.3860402.9355072-.8833789.9932723l-.1166211.0067277h-2v2c0 .5522847-.4477153 1-1 1-.5128358 0-.9355072-.3860402-.9932723-.8833789l-.0067277-.1166211v-2h-2c-.5522847 0-1-.4477153-1-1 0-.51283584.3860402-.93550716.8833789-.99327227l.1166211-.00672773h2v-2c0-.55228475.4477153-1 1-1z" fill="#010101"/></svg>
