<svg height="16" viewBox="0 0 16 16" width="16" xmlns="http://www.w3.org/2000/svg"><path d="m2.17707022 5.43013753c-.11602491.50500647-.17707022 1.03030552-.17707022 1.56986247 0 .3693801.02861045.73207787.08373622 1.08599817-.05507834.29581165-.08373622.60156004-.08373622.91400183 0 2.7614237 2.23857625 5 5 5 .31290021 0 .61908736-.028742.91606532-.08373.35253857.0551733.71490174.08373 1.08393468.08373.53966371 0 1.0650639-.0610695 1.5696667-.1766747-.99718262.7391462-2.23232953 1.1766747-3.5696667 1.1766747-3.3137085 0-6-2.6862915-6-6 0-1.33722842.43745736-2.57228319 1.17707022-3.56986247zm6.82292978-4.43013753c3.3137085 0 6 2.6862915 6 6s-2.6862915 6-6 6-6-2.6862915-6-6 2.6862915-6 6-6zm0 1c-2.76142375 0-5 2.23857625-5 5s2.23857625 5 5 5c2.7614237 0 5-2.23857625 5-5s-2.2385763-5-5-5zm0 1c.51283584 0 .93550716.38604019.99327227.88337887l.00672773.11662113v2h2c.5522847 0 1 .44771525 1 1 0 .51283584-.3860402.93550716-.8833789.99327227l-.1166211.00672773h-2v2c0 .5522847-.44771525 1-1 1-.51283584 0-.93550716-.3860402-.99327227-.8833789l-.00672773-.1166211v-2h-2c-.55228475 0-1-.44771525-1-1 0-.51283584.38604019-.93550716.88337887-.99327227l.11662113-.00672773h2v-2c0-.55228475.44771525-1 1-1z" fill="#010101"/></svg>
