<svg width="24" height="24" viewBox="0 0 24 24" fill="none" xmlns="http://www.w3.org/2000/svg">
<path fill-rule="evenodd" clip-rule="evenodd" d="M21 0H19V3H16V5H19V8H21V5H24V3H21V0ZM9.5 11C10.3284 11 11 10.3284 11 9.5C11 8.67157 10.3284 8 9.5 8C8.67157 8 8 8.67157 8 9.5C8 10.3284 8.67157 11 9.5 11ZM12 15C10.3613 15 8.95056 14.0144 8.3324 12.5996L6.49969 13.4004C7.42465 15.5174 9.53807 17 12 17C14.4619 17 16.5754 15.5174 17.5003 13.4004L15.6676 12.5996C15.0494 14.0144 13.6387 15 12 15ZM16 9.5C16 10.3284 15.3284 11 14.5 11C13.6716 11 13 10.3284 13 9.5C13 8.67157 13.6716 8 14.5 8C15.3284 8 16 8.67157 16 9.5ZM12 2C12.6849 2 13.3538 2.06886 14 2.20004V4.25204C13.3608 4.08751 12.6906 4 12 4C7.58172 4 4 7.58172 4 12C4 16.4183 7.58172 20 12 20C16.4183 20 20 16.4183 20 12C20 11.3094 19.9125 10.6392 19.748 10H21.8C21.9311 10.6462 22 11.3151 22 12C22 17.5228 17.5228 22 12 22C6.47715 22 2 17.5228 2 12C2 6.47715 6.47715 2 12 2Z" fill="#010101"/>
</svg>
