<svg width="16" height="16" viewBox="0 0 16 16" fill="none" xmlns="http://www.w3.org/2000/svg">
<path fill-rule="evenodd" clip-rule="evenodd" d="M13 0H14V2H16V3H14V5H13V3H11V2H13V0ZM6 8C6.55228 8 7 7.55228 7 7C7 6.44772 6.55228 6 6 6C5.44772 6 5 6.44772 5 7C5 7.55228 5.44772 8 6 8ZM11.0321 9.24963C10.4261 10.2971 9.29486 11 8 11C6.70513 11 5.57385 10.2971 4.96793 9.24963L4.10233 9.75036C4.87964 11.0941 6.33373 12 8 12C9.66626 12 11.1204 11.0941 11.8977 9.75036L11.0321 9.24963ZM11 7C11 7.55228 10.5523 8 10 8C9.44771 8 9 7.55228 9 7C9 6.44772 9.44771 6 10 6C10.5523 6 11 6.44772 11 7ZM8 1C8.69497 1 9.36629 1.10128 10 1.28988V2.34141C9.37444 2.12031 8.70127 2 8 2C4.68629 2 2 4.68629 2 8C2 11.3137 4.68629 14 8 14C11.3137 14 14 11.3137 14 8C14 7.29873 13.8797 6.62556 13.6586 6H14.7101C14.8987 6.63371 15 7.30503 15 8C15 11.866 11.866 15 8 15C4.13401 15 1 11.866 1 8C1 4.13401 4.13401 1 8 1Z" fill="#010101"/>
</svg>
