<svg height="24" viewBox="0 0 24 24" width="24" xmlns="http://www.w3.org/2000/svg"><path d="m14 2 6 6v12c0 1.1045695-.8954305 2-2 2h-12c-1.1045695 0-2-.8954305-2-2v-16c0-1.1045695.8954305-2 2-2zm-2 2h-6v16h12v-10h-4c-1.0543618 0-1.9181651-.81587779-1.9945143-1.85073766l-.0054857-.14926234zm1 12c.5522847 0 1 .4477153 1 1s-.4477153 1-1 1h-4c-.55228475 0-1-.4477153-1-1s.44771525-1 1-1zm2-4c.5522847 0 1 .4477153 1 1s-.4477153 1-1 1h-6c-.55228475 0-1-.4477153-1-1s.44771525-1 1-1zm-1-7.171v3.171h3.171z" fill="#010101"/></svg>
