<svg height="16" viewBox="0 0 16 16" width="16" xmlns="http://www.w3.org/2000/svg"><path d="m9 1 4 4v9c0 .5522847-.4477153 1-1 1h-8c-.55228475 0-1-.4477153-1-1v-12c0-.55228475.44771525-1 1-1zm-1 1h-4v12h8v-8h-4zm-.5 9c.27614237 0 .5.2238576.5.5s-.22385763.5-.5.5h-2c-.27614237 0-.5-.2238576-.5-.5s.22385763-.5.5-.5zm1-2c.27614237 0 .5.22385763.5.5s-.22385763.5-.5.5h-3c-.27614237 0-.5-.22385763-.5-.5s.22385763-.5.5-.5zm2-2c.2761424 0 .5.22385763.5.5s-.2238576.5-.5.5h-5c-.27614237 0-.5-.22385763-.5-.5s.22385763-.5.5-.5zm-1.5-4.585v2.585h2.586z" fill="#010101"/></svg>
