<svg height="16" viewBox="0 0 16 16" width="16" xmlns="http://www.w3.org/2000/svg"><path d="m6.85355339 9.14644661c.17356635.17356635.1928515.44299075.05785545.63785889l-.05785545.06924789-4.14755339 4.14644661h2.794c.24545989 0 .44960837.1768752.49194433.4101244l.00805567.0898756c0 .2454599-.17687516.4496084-.41012437.4919443l-.08987563.0080557h-4c-.24545989 0-.44960837-.1768752-.49194433-.4101244l-.00805567-.0898756v-4c0-.2761424.22385763-.5.5-.5.24545989 0 .44960837.1768752.49194433.4101244l.00805567.0898756v2.792l4.14644661-4.14555339c.19526215-.19526215.51184463-.19526215.70710678 0zm6.14644661-2.14644661v6h-6v-1h5v-5zm-4-4v1h-5v5h-1v-6zm5.5-2c.2454599 0 .4496084.17687516.4919443.41012437l.0080557.08987563v4c0 .27614237-.2238576.5-.5.5-.2454599 0-.4496084-.17687516-.4919443-.41012437l-.0080557-.08987563v-2.794l-4.14644661 4.14755339c-.19526215.19526215-.51184463.19526215-.70710678 0-.17356635-.17356635-.1928515-.44299075-.05785545-.63785889l.05785545-.06924789 4.14655339-4.14744661-2.793.001c-.2454599 0-.4496084-.17687516-.4919443-.41012437l-.0080557-.08987563c0-.24545989.1768752-.44960837.4101244-.49194433l.0898756-.00805567z" fill="#010101"/></svg>
