<svg height="24" viewBox="0 0 24 24" width="24" xmlns="http://www.w3.org/2000/svg"><path d="m22 12v10h-10v-2h8v-8zm-12 1 .0193545.0001861c.0233265.0004488.0466404.0017089.0698956.0037803l-.0892501-.0039664c.0506203 0 .1003621.0037612.1489612.0110193.0169878.0026088.0344141.0056829.0517646.0092208.0220203.0043997.0437107.0095935.0651138.0154809.0156237.0043767.0310117.0090077.0463029.0140171.0196552.0063844.0394367.0135776.058916.0213659.0177371.0070924.03504.014575.052163.0225694.0206699.0097032.0410724.0201205.0610555.0312024.0121174.006623.0243361.0137311.0364318.0211197.0255662.0157232.0504219.0324946.0744505.050318.0074437.0054399.0146831.010971.021863.0166142.0631595.049624.120426.1068905.1701917.1703222l-.0801072-.0903567c.035394.0353941.0675802.0727812.0965586.1118002.0178445.0241759.0346159.0490316.0502672.0746464.0074605.0120471.0145686.0242658.0213962.0365981.0108773.0197682.0212946.0401707.0310174.060963.0079748.0170006.0154574.0343035.0224283.0517631.0079098.0197568.015103.0395383.0216788.0595996.004818.0148851.009449.0302731.0137016.0457434.0060115.0215565.0112053.0432469.0156799.0651989.003463.0174188.0065371.0348451.0091474.0523272.0016003.010231.0030317.021012.0042901.0318458l.0030256.0303903c.0015457.0179653.0026074.0359644.003185.0539762l.0005171.0322546v5c0 .5522847-.4477153 1-1 1-.51283584 0-.93550716-.3860402-.99327227-.8833789l-.00672773-.1166211v-2.586l-3.29289322 3.2931068c-.39052429.3905243-1.02368927.3905243-1.41421356 0-.36048396-.360484-.3882135-.927715-.08318861-1.3200062l.08318861-.0942074 3.29110678-3.2928932h-2.584c-.51283584 0-.93550716-.3860402-.99327227-.8833789l-.00672773-.1166211c0-.5128358.38604019-.9355072.88337887-.9932723l.11662113-.0067277zm2-11v2h-8v7h-2v-9zm2 2c.5128358 0 .9355072.38604019.9932723.88337887l.0067277.11662113v2.584l3.2928932-3.29110678c.3905243-.39052429 1.0236893-.39052429 1.4142136 0 .3604839.36048396.3882135.92771502.0831886 1.32000622l-.0831886.09420734-3.2931068 3.29289322h2.586c.5128358 0 .9355072.38604019.9932723.88337887l.0067277.11662113c0 .5128358-.3860402.9355072-.8833789.9932723l-.1166211.0067277h-5l-.0322546-.0005171c-.0180118-.0005776-.0360109-.0016393-.0539762-.003185l.0862308.0037021c-.0506203 0-.1003621-.0037612-.1489612-.0110193-.0169878-.0026088-.0344141-.0056829-.0517646-.0092208-.0220203-.0043997-.0437107-.0095935-.0651138-.0154809-.0156237-.0043767-.0310117-.0090077-.0463029-.0140171-.0196552-.0063844-.0394367-.0135776-.058916-.0213659-.0177371-.0070924-.03504-.014575-.052163-.0225694-.0206699-.0097032-.0410724-.0201205-.0610555-.0312024-.0121174-.006623-.0243361-.0137311-.0364318-.0211197-.0255662-.0157232-.0504219-.0324946-.0744505-.050318-.0074437-.0054399-.0146831-.010971-.021863-.0166142-.0631595-.049624-.120426-.1068905-.1701917-.1703222l.0801072.0903567c-.035394-.0353941-.0675802-.0727812-.0965586-.1118002-.0178445-.0241759-.0346159-.0490316-.0502672-.0746464-.0074605-.0120471-.0145686-.0242658-.0213962-.0365981-.0108773-.0197682-.0212946-.0401707-.0310174-.060963-.0079748-.0170006-.0154574-.0343035-.0224283-.0517631-.0079098-.0197568-.015103-.0395383-.0216788-.0595996-.004818-.0148851-.009449-.0302731-.0137016-.0457434-.0060115-.0215565-.0112053-.0432469-.0156799-.0651989-.003463-.0174188-.0065371-.0348451-.0091474-.0523272-.0016003-.010231-.0030317-.021012-.0042901-.0318458l-.0027613-.027371c-.0020714-.0232552-.0033315-.0465691-.0037803-.0698956l-.0001861-.0193545v-5c0-.55228475.4477153-1 1-1z" fill="#010101"/></svg>
