<svg height="24" viewBox="0 0 24 24" width="24" xmlns="http://www.w3.org/2000/svg"><path d="m12 3c2.209139 0 4 1.790861 4 4v2h1c1.1045695 0 2 .8954305 2 2v8c0 1.1045695-.8954305 2-2 2h-10c-1.1045695 0-2-.8954305-2-2v-8c0-1.1045695.8954305-2 2-2h1v-2c0-2.209139 1.790861-4 4-4zm5 8h-10v8h10zm-5 2c1.1045695 0 2 .8954305 2 2s-.8954305 2-2 2-2-.8954305-2-2 .8954305-2 2-2zm0-8c-1.0543618 0-1.9181651.81587779-1.9945143 1.85073766l-.0054857.14926234v2h4v-2c0-1.1045695-.8954305-2-2-2z" fill="#010101"/></svg>
