<svg height="24" viewBox="0 0 24 24" width="24" xmlns="http://www.w3.org/2000/svg"><path d="m12.6139406 2.47750937 7.6139406 5.92195381c.4871731.3789124.7721188.96152357.7721188 1.57870443v10.02183239c0 1.1045695-.8954305 2-2 2h-14c-1.1045695 0-2-.8954305-2-2v-10.02183239c0-.61718086.28494569-1.19979203.77211877-1.57870443l7.61394063-5.92195381c.3611105-.28086371.8667707-.28086371 1.2278812 0zm6.3860594 8.93635223-5.5857864 5.5861384c-.7399408.7399408-1.915425.778885-2.7012124.1168328l-.1272148-.1168328-5.5857864-5.5851384v8.5851384h14zm-7-6.8808616-6.217 4.83586158 6.217 6.21692482 6.216-6.21692482z" fill="#010101"/></svg>
