<svg height="16" viewBox="0 0 16 16" width="16" xmlns="http://www.w3.org/2000/svg"><path d="m8 1c3.8659932 0 7 3.13400675 7 7 0 3.8659932-3.1340068 7-7 7-3.86599325 0-7-3.1340068-7-7 0-3.86599325 3.13400675-7 7-7zm0 10c-.55228475 0-1 .4477153-1 1s.44771525 1 1 1 1-.4477153 1-1-.44771525-1-1-1zm0-7.5c-1.38071187 0-2.5 1.11928813-2.5 2.5h1l.00686658-.14446001c.07268474-.76065191.7134373-1.35553999 1.49313342-1.35553999.82842712 0 1.5.67157288 1.5 1.5s-.67157288 1.5-1.5 1.5h-.5v2.5h1v-1.551l.13915054-.03144752c1.07107976-.28241713 1.86084946-1.25775451 1.86084946-2.41755248 0-1.38071187-1.11928813-2.5-2.5-2.5z" fill="#010101"/></svg>
