<svg height="24" viewBox="0 0 24 24" width="24" xmlns="http://www.w3.org/2000/svg"><path d="m12 2c5.5228475 0 10 4.4771525 10 10s-4.4771525 10-10 10-10-4.4771525-10-10 4.4771525-10 10-10zm0 14c-.5522847 0-1 .4477153-1 1s.4477153 1 1 1 1-.4477153 1-1-.4477153-1-1-1zm0-10c-2.209139 0-4 1.790861-4 4h2l.0054857-.14926234c.0763492-1.03485987.9401525-1.85073766 1.9945143-1.85073766 1.1045695 0 2 .8954305 2 2s-.8954305 2-2 2h-1v3h2v-1.127l.1552529-.0423561c1.6459063-.4956935 2.8447471-2.0231665 2.8447471-3.8306439 0-2.209139-1.790861-4-4-4z" fill="#010101"/></svg>
