<svg height="24" viewBox="0 0 24 24" width="24" xmlns="http://www.w3.org/2000/svg"><path d="m13 2c1.1045695 0 2 .8954305 2 1.99984196v1.67415804l.2948116.14855829c.1028389.05494767.2042689.1124527.3041989.17245415l.2869895.18198756 1.3460508-.77507621c.9110336-.52598548 2.0638772-.25375321 2.6486903.59970068l.0833605.13235013 1 1.7320508c.5522848.95658525.2245345 2.1797661-.7316227 2.7318035l-1.2654789.7311711.0242157.3176831.0087843.3533169c0 .2226257-.0104249.4440142-.031114.6636293l-.026886.2253707 1.2900508.7449746c.9110336.5259855 1.2516953 1.6604935.8049891 2.5936834l-.0729383.1383674-1 1.7320508c-.5522847.9565853-1.7754655 1.2843356-2.7320425.7320556l-1.5350591-.8861318-.2216143.1335035c-.0908077.0520234-.182787.1020102-.275872.1499173l-.1995137.0965792v1.676c0 1.0543618-.8158778 1.9181651-1.8507377 1.9945143l-.1492623.0054857h-2c-1.1045695 0-2-.8954305-1.99999999-1.999842l-.00100001-1.676158-.19851375-.0965792c-.09308494-.0479071-.18506425-.0978939-.27587195-.1499173l-.2226143-.1335035-1.53405081.886127c-.91103357.5259855-2.06387717.2537532-2.64869029-.5997007l-.08336052-.1323501-1-1.7320508c-.55228474-.9565852-.22453443-2.1797661.7321565-2.7321118l1.28894512-.7449136-.02588597-.2253707c-.01034458-.1098076-.01812309-.2200585-.02331545-.3306857l-.00779858-.3329436c0-.1182402.00294063-.2361393.00879925-.3536178l.02320075-.3183822-1.26405081-.7299238c-.91103357-.5259855-1.25169531-1.66049344-.80498912-2.59368342l.07293831-.13836738 1-1.7320508c.55228475-.95658525 1.77546557-1.28433556 2.73209196-.73202705l1.34400966.77605245.28844127-.18265834c.09997002-.06003792.20144164-.11757729.30432367-.17255706l.29423506-.1487846.001-1.674c0-1.0543618.81587779-1.91816512 1.8507377-1.99451426l.1492623-.00548574zm0 2h-2l-.0004818 3.04870848-.66658.23565166c-.55168608.19503395-1.06426706.48625227-1.51528946.85891928l-.53547136.44244478-2.51422819-1.4517496-1 1.7320508 2.47481442 1.4289722-.14294754.7050137c-.06616493.3263238-.09981607.6606918-.09981607.9999887 0 .3991195.04656533.7913584.13777462 1.1715512l.174193.7260984-2.54401843 1.4683758 1 1.7320508 2.66053781-1.536028.53013156.4069626c.41608498.3194132.87958514.5717288 1.37431964.7466291l.66658.2356516.0004818 3.0487085h2l.0004818-3.0487085.66658-.2356516c.4947345-.1749003.9582347-.4272159 1.3743196-.7466291l.5301316-.4069626 2.6605378 1.536028 1-1.7320508-2.5440184-1.4683758.174193-.7260984c.0912093-.3801928.1377746-.7724317.1377746-1.1715512 0-.3390079-.0335938-.6730953-.0996472-.9991555l-.142733-.7045744 2.474431-1.4302447-1-1.7320508-2.5150988 1.45088701-.5352181-.44209222c-.4508743-.37242387-.9632392-.6634648-1.5146721-.85840925l-.66658-.23565166zm-1 5c1.6568542 0 3 1.3431458 3 3s-1.3431458 3-3 3-3-1.3431458-3-3 1.3431458-3 3-3zm0 2c-.5522847 0-1 .4477153-1 1s.4477153 1 1 1 1-.4477153 1-1-.4477153-1-1-1z" fill="#010101"/></svg>
