<svg height="16" viewBox="0 0 16 16" width="16" xmlns="http://www.w3.org/2000/svg"><path d="m11.5 1c1.3807119 0 2.5 1.11928813 2.5 2.5s-1.1192881 2.5-2.5 2.5c-.7674357 0-1.4541064-.34579583-1.91270113-.8900764l.02344004.02741799-3.73010225 2.09719385c.07658532.2356067.11936334.49553996.11936334.76546456s-.04277802.52985786-.12192438.77339008l.00256104-.00792552 3.73010225 2.09719384-.02344004.027418c.45859473-.5442806 1.14526543-.8900764 1.91270113-.8900764 1.3807119 0 2.5 1.1192881 2.5 2.5s-1.1192881 2.5-2.5 2.5-2.5-1.1192881-2.5-2.5c0-.2699246.04277802-.5298579.12192438-.7733901l-.00256104.0079255-3.72922718-2.09820318.02256497-.02640862c-.45859472.5442806-1.14526545.8900764-1.91270113.8900764-1.38071187 0-2.5-1.11928813-2.5-2.5s1.11928813-2.5 2.5-2.5c.76743568 0 1.45410641.34579583 1.91270113.8900764l-.02344004-.02741799 3.73004917-2.09735908c-.07653224-.23544147-.11931026-.49537473-.11931026-.76529933 0-1.38071187 1.1192881-2.5 2.5-2.5zm0 10c-.8284271 0-1.5.6715729-1.5 1.5s.6715729 1.5 1.5 1.5 1.5-.6715729 1.5-1.5-.6715729-1.5-1.5-1.5zm-8-4.5c-.82842712 0-1.5.67157288-1.5 1.5s.67157288 1.5 1.5 1.5 1.5-.67157288 1.5-1.5-.67157288-1.5-1.5-1.5zm8-4.5c-.8284271 0-1.5.67157288-1.5 1.5s.6715729 1.5 1.5 1.5 1.5-.67157288 1.5-1.5-.6715729-1.5-1.5-1.5z" fill="#010101"/></svg>
