<svg width="24" height="24" viewBox="0 0 24 24" fill="none" xmlns="http://www.w3.org/2000/svg">
<path fill-rule="evenodd" clip-rule="evenodd" d="M5.75 4C5.75 3.58579 5.41421 3.25 5 3.25C4.58579 3.25 4.25 3.58579 4.25 4V4.25H3C2.58579 4.25 2.25 4.58579 2.25 5C2.25 5.41421 2.58579 5.75 3 5.75H4.25V9.25H3C2.58579 9.25 2.25 9.58579 2.25 10C2.25 10.4142 2.58579 10.75 3 10.75H5H7C7.41421 10.75 7.75 10.4142 7.75 10C7.75 9.58579 7.41421 9.25 7 9.25H5.75V5V4ZM21 16C21.5523 16 22 16.4477 22 17C22 17.5523 21.5523 18 21 18H11C10.4477 18 10 17.5523 10 17C10 16.4477 10.4477 16 11 16H21ZM21 6C21.5523 6 22 6.44772 22 7C22 7.55228 21.5523 8 21 8H11C10.4477 8 10 7.55228 10 7C10 6.44772 10.4477 6 11 6H21ZM2.25 14C2.25 13.5858 2.58579 13.25 3 13.25H6C6.9665 13.25 7.75 14.0335 7.75 15V16C7.75 16.9665 6.9665 17.75 6 17.75H4C3.86193 17.75 3.75 17.8619 3.75 18V19C3.75 19.1381 3.86193 19.25 4 19.25H7C7.41421 19.25 7.75 19.5858 7.75 20C7.75 20.4142 7.41421 20.75 7 20.75H4C3.0335 20.75 2.25 19.9665 2.25 19V18C2.25 17.0335 3.0335 16.25 4 16.25H6C6.13807 16.25 6.25 16.1381 6.25 16V15C6.25 14.8619 6.13807 14.75 6 14.75H3C2.58579 14.75 2.25 14.4142 2.25 14Z" fill="#010101"/>
</svg>
