<svg xmlns="http://www.w3.org/2000/svg" width="24" height="24" viewBox="0 0 24 24">
  <path fill="#010101" d="M12,5 C18.5254567,5 23.8343928,10.2085444 23.9962001,16.6950252 L24,17 L22,17 C22,11.4771525 17.5228475,7 12,7 C6.57076009,7 2.15206828,11.3266708 2.0038418,16.7200952 L2,17 L0,17 C0,10.372583 5.372583,5 12,5 Z M12,8 C13.4260217,8 14.8075961,8.3334747 16.0531416,8.96262169 L16.361641,9.12604639 L14.4209456,12.6237172 C13.6868975,12.216428 12.8614359,12 12,12 C9.3112453,12 7.11818189,14.1223067 7.00461951,16.7831104 L7,17 L3,17 C3,12.0294373 7.02943725,8 12,8 Z"/>
</svg>
