<svg height="16" viewBox="0 0 15 16" width="15" xmlns="http://www.w3.org/2000/svg"><path d="m8.8507692 1.83898598.05541394.10283503 5.42980366 11.63529349c.0617934.1324144.0938168.2767623.0938168.4228855 0 .5128358-.3860401.9355072-.8833788.9932723l-.1166212.0067277h-10.85960724c-.14612321 0-.29047108-.0320235-.42288547-.0938169-.46472319-.2168708-.68449003-.7454355-.5265185-1.2205434l.04322083-.1085252 5.42980364-11.63529349c.09933578-.21286239.27043528-.38396189.48329767-.48329767.4647232-.21687082 1.01099161-.04578927 1.27365467.38046264zm-.8507692 9.16101402c-.55228475 0-1 .4477153-1 1s.44771525 1 1 1 1-.4477153 1-1-.44771525-1-1-1zm1-6h-2v5h2z" fill="#010101"/></svg>
