<svg xmlns="http://www.w3.org/2000/svg" width="16" height="16" viewBox="0 0 16 16">
  <path fill="#6E7A8A" d="M11,7 C12.6568542,7 14,8.34314575 14,10 C14,11.6568542 12.6568542,13 11,13 C9.34314575,13 8,11.6568542 8,10 C8,8.34314575 9.34314575,7 11,7 Z M11,8 C9.8954305,8 9,8.8954305 9,10 C9,11.1045695 9.8954305,12 11,12 C12.1045695,12 13,11.1045695 13,10 C13,8.8954305 12.1045695,8 11,8 Z M12,3 L12,6.5 L11,6.5 L11,6 L4,6 L4,10 L7,10 L7,11 L3,11 L3,3 L12,3 Z M11,4 L4,4 L4,5 L11,5 L11,4 Z"/>
</svg>
