<svg height="24" viewBox="0 0 24 24" width="24" xmlns="http://www.w3.org/2000/svg"><path d="m12 4c.5128358 0 .9355072.38604019.9932723.88337887l.0067277.11662113v11.584l4.2928932-4.2911068c.360484-.3604839.927715-.3882135 1.3200062-.0831886l.0942074.0831886c.3604839.360484.3882135.927715.0831886 1.3200062l-.0831886.0942074-6 6c-.360484.3604839-.927715.3882135-1.3200062.0831886l-.0942074-.0831886-5.99999998-6c-.39052429-.3905243-.39052429-1.0236893 0-1.4142136.36048396-.3604839.92771502-.3882135 1.32000622-.0831886l.09420734.0831886 4.29289322 4.2931068v-11.586c0-.55228475.4477153-1 1-1z" fill="#010101"/></svg>
