<svg height="24" viewBox="0 0 24 24" width="24" xmlns="http://www.w3.org/2000/svg"><path d="m14.7071068 5.29289322c.3604839.36048396.3882135.92771502.0831886 1.32000622l-.0831886.09420734-4.2921068 4.29289322h10.585c.5522847 0 1 .4477153 1 1 0 .5128358-.3860402.9355072-.8833789.9932723l-.1166211.0067277h-10.585l4.2921068 4.2928932c.3604839.360484.3882135.927715.0831886 1.3200062l-.0831886.0942074c-.360484.3604839-.927715.3882135-1.3200062.0831886l-.0942074-.0831886-5.99999998-6-.07320445-.0816578c-.00231667-.0028866-.00461764-.0057862-.00690281-.0086989l.08010726.0903567c-.03539405-.0353941-.06758027-.0727812-.09655864-.1118002-.01784449-.0241759-.03461588-.0490316-.05026715-.0746464-.00746051-.0120471-.0145686-.0242658-.02139626-.0365981-.01087725-.0197682-.02129453-.0401707-.03101739-.060963-.00797473-.0170006-.01545736-.0343035-.02242829-.0517631-.00790975-.0197568-.015103-.0395383-.02167881-.0595996-.00481796-.0148851-.00944895-.0302731-.01370154-.0457434-.00601151-.0215565-.01120534-.0432469-.01567999-.0651989-.00346298-.0174188-.00653707-.0348451-.00914735-.0523272-.00291682-.0190465-.00526984-.038772-.00704032-.0586651-.0020825-.0238069-.00334259-.0471208-.00379133-.0704473-.00012487-.0064459-.00018615-.012893-.00018615-.0193545l.00016755-.0183621c.00043177-.0236577.00169805-.047303.00379886-.070888l-.00396641.0892501c0-.0506203.00376119-.1003621.01101934-.1489612.00260874-.0169878.00568283-.0344141.00922073-.0517646.00439973-.0220203.00959356-.0437107.0154809-.0651138.00437676-.0156237.00900775-.0310117.01401712-.0463029.0063844-.0196552.01357765-.0394367.02136587-.058916.00709246-.0177371.01457509-.03504.0225694-.052163.00970328-.0206699.02012056-.0410724.03120241-.0610555.00662306-.0121174.01373115-.0243361.02111968-.0364318.01572325-.0255662.03249464-.0504219.05031806-.0744505.00440435-.0060493.00886103-.011914.0133911-.0177401.02796423-.0355665.0547223-.0657411.08318861-.0942074l5.99999998-5.99999998c.3905243-.39052429 1.0236893-.39052429 1.4142136 0zm-5.00000002 0c.36048392.36048396.38821352.92771502.08318861 1.32000622l-.08318861.09420734-5.29210678 5.29289322 5.29210678 5.2928932c.36048392.360484.38821352.927715.08318861 1.3200062l-.08318861.0942074c-.36048396.3604839-.92771502.3882135-1.32000622.0831886l-.09420734-.0831886-6-6c-.36048396-.360484-.3882135-.927715-.08318861-1.3200062l.08318861-.0942074 6-5.99999998c.39052429-.39052429 1.02368927-.39052429 1.41421356 0z" fill="#010101"/></svg>
