<svg height="16" viewBox="0 0 16 16" width="16" xmlns="http://www.w3.org/2000/svg"><path d="m10.8535534 2.64644661c.1735663.17356635.1928515.44299075.0578554.63785889l-.0578554.06924789-4.1465534 4.14644661h7.793c.2761424 0 .5.22385763.5.5 0 .24545989-.1768752.44960837-.4101244.49194433l-.0898756.00805567h-7.793l4.1465534 4.1464466c.1735663.1735664.1928515.4429908.0578554.6378589l-.0578554.0692479c-.1735664.1735663-.4429908.1928515-.6378589.0578554l-.0692479-.0578554-4.99999999-5.00000001c-.17356635-.17356635-.1928515-.44299075-.05785545-.63785889l.05785545-.06924789 4.99999999-5c.1952622-.19526215.5118446-.19526215.7071068 0zm-4.00000001 0c.17356635.17356635.1928515.44299075.05785545.63785889l-.05785545.06924789-4.64655339 4.64644661 4.64655339 4.6464466c.17356635.1735664.1928515.4429908.05785545.6378589l-.05785545.0692479c-.17356635.1735663-.44299075.1928515-.63785889.0578554l-.06924789-.0578554-5-5.00000001c-.17356635-.17356635-.1928515-.44299075-.05785545-.63785889l.05785545-.06924789 5-5c.19526215-.19526215.51184463-.19526215.70710678 0z" fill="#010101"/></svg>
