<svg height="24" viewBox="0 0 24 24" width="24" xmlns="http://www.w3.org/2000/svg"><path d="m12 2c5.5228475 0 10 4.4771525 10 10 0 5.4292399-4.3266708 9.8479317-9.7200952 9.9961582l-.2799048.0038418v-2c4.418278 0 8-3.581722 8-8s-3.581722-8-8-8c-4.33491426 0-7.86454287 3.44783777-7.99619318 7.7508207l-.00380682.2491793h-2c0-5.5228475 4.4771525-10 10-10zm-4.29289322 10.2928932c.36048396.360484.3882135.927715.08318861 1.3200062l-.08318861.0942074-2.29310678 2.2928932h4.586c.5522847 0 1 .4477153 1 1 0 .5128358-.3860402.9355072-.8833789.9932723l-.1166211.0067277h-4.586l2.29310678 2.2928932c.36048396.360484.3882135.927715.08318861 1.3200062l-.08318861.0942074c-.36048396.3604839-.92771502.3882135-1.32000622.0831886l-.09420734-.0831886-4-4-.07320445-.0816578c-.00231667-.0028866-.00461764-.0057862-.00690281-.0086989l.08010726.0903567c-.03539405-.0353941-.06758027-.0727812-.09655864-.1118002-.01784449-.0241759-.03461588-.0490316-.05026715-.0746464-.00746051-.0120471-.0145686-.0242658-.02139626-.0365981-.01087725-.0197682-.02129453-.0401707-.03101739-.060963-.00797473-.0170006-.01545736-.0343035-.02242829-.0517631-.00790975-.0197568-.015103-.0395383-.02167881-.0595996-.00481796-.0148851-.00944895-.0302731-.01370154-.0457434-.00601151-.0215565-.01120534-.0432469-.01567999-.0651989-.00346298-.0174188-.00653707-.0348451-.00914735-.0523272-.00291682-.0190465-.00526984-.038772-.00704032-.0586651-.0020825-.0238069-.00334259-.0471208-.00379133-.0704473-.00012487-.0064459-.00018615-.012893-.00018615-.0193545l.00016755-.0183621c.00043177-.0236577.00169805-.047303.00379886-.070888l-.00396641.0892501c0-.0506203.00376119-.1003621.01101934-.1489612.00260874-.0169878.00568283-.0344141.00922073-.0517646.00439973-.0220203.00959356-.0437107.0154809-.0651138.0044706-.015965.00921229-.0316908.01434926-.047315.00628849-.0192922.01337331-.0387442.02103373-.0579039.00709246-.0177371.01457509-.03504.0225694-.052163.00970328-.0206699.02012056-.0410724.03120241-.0610555.00662306-.0121174.01373115-.0243361.02111968-.0364318.01572325-.0255662.03249464-.0504219.05031806-.0744505.00440435-.0060493.00886103-.011914.0133911-.0177401.02796423-.0355665.0547223-.0657411.08318861-.0942074l4-4c.39052429-.3905243 1.02368927-.3905243 1.41421356 0zm5.29289322-6.2928932v5.585l2.7071068 2.7078932-1.4142136 1.4142136-3.2928932-3.2928932v-6.4142136z" fill="#010101"/></svg>