<svg height="16" viewBox="0 0 16 16" width="16" xmlns="http://www.w3.org/2000/svg"><path d="m2.78408921 10.9062444c.68465844 0 1.09374895-.3210225 1.28124878-.6874994h.03409087v.5994313h.98863542v-2.92045036c0-1.15340942-.94034001-1.5-1.77272558-1.5-.91761276 0-1.62215754.40909052-1.84943005 1.20454431l.96022635.1363635c.10227263-.29829517.39204508-.55397674.89488551-.55397674.47727228 0 .73863566.24431795.73863566.67329481v.01704544c0 .29545426-.30965879.30965879-1.07954442.39204508-.8465901.090909-1.65624842.34374967-1.65624842 1.32670328 0 .85795368.62784031 1.31249878 1.46022588 1.31249878zm.2670452-.7556811c-.42897687 0-.73579476-.19602257-.73579476-.57386312 0-.39488599.34374968-.55965856.80397651-.6249994.26988611-.03693179.80965832-.10511354.94318092-.21306798v.51420405c0 .48579595-.39204508.89772645-1.01136267.89772645zm5.4403401.7443174c1.02840811 0 1.79829379-.8153401 1.79829379-2.25283872 0-1.45454407-.79261293-2.24431604-1.80113469-2.24431604-.76988563 0-1.09090805.46306774-1.24715791.77840835h-.04261359v-2.17613429h-1.02840811v5.8181763h1.01136267v-.6874994h.05965903c.16193167.3181815.49999953.7642038 1.24999881.7642038zm-.28693154-.8437492c-.65624938 0-1.02556721-.56818123-1.02556721-1.41477133s.36363602-1.39488503 1.02556721-1.39488503c.68465844 0 1.03693083.5823858 1.03693083 1.39488503 0 .81818104-.35795421 1.41477133-1.03693083 1.41477133zm4.86647743.852272c1.0965899 0 1.7954528-.6505676 1.8693164-1.57670308h-.9829536c-.0880681.46874955-.426136.73863568-.8778401.73863568-.6420448 0-1.0568171-.53693133-1.0568171-1.42897593 0-.88068098.423295-1.40908957 1.0568171-1.40908957.4943177 0 .7982947.31818152.8778401.73863566h.9829536c-.0710227-.94602182-.8096583-1.56818032-1.8749982-1.56818032-1.2784079 0-2.0852253.92329457-2.0852253 2.25567967 0 1.32102146.7869311 2.24999789 2.0909071 2.24999789z" fill="#010101"/></svg>
