<svg height="16" viewBox="0 0 16 16" width="16" xmlns="http://www.w3.org/2000/svg"><path d="m13.5 9.5c.2454599 0 .4496084.17687516.4919443.41012437l.0080557.08987563v3.5c0 .7796961-.5948881 1.4204487-1.35554 1.4931334l-.14446.0068666h-9c-.77969612 0-1.42044868-.5948881-1.49313342-1.35554l-.00686658-.14446v-3.5c0-.27614237.22385763-.5.5-.5.24545989 0 .44960837.17687516.49194433.41012437l.00805567.08987563v3.5c0 .2454599.17687516.4496084.41012437.4919443l.08987563.0080557h9c.2454599 0 .4496084-.1768752.4919443-.4101244l.0080557-.0898756v-3.5c0-.27614237.2238576-.5.5-.5zm-5-7.5v7.792l3.1464466-3.14555339.7071068.70710678-4.3535534 4.35355341-4.35355339-4.35355341.70710678-.70710678 3.14644661 3.14555339v-7.792z" fill="#010101"/></svg>
