<svg height="24" viewBox="0 0 24 24" width="24" xmlns="http://www.w3.org/2000/svg"><path d="m17.267767 9.69669914c.7810485-.78104858 2.0473785-.78104858 2.8284271 0l1.4142135 1.41421356c.7810486.7810486.7810486 2.0473785 0 2.8284271l-8.0710678 8.0710678h-4.24264066v-4.2426406zm-11.267767 6.30330086v2h-2v2h2v2h-3c-.55228475 0-1-.4477153-1-1v-4c0-.5522847.44771525-1 1-1zm12.6819805-4.8890873-7.4847253 7.4847253v1.4142135l1.4149207-.0007071 7.4840182-7.4840181zm-8.6819805-2.1109127v2h-6v2h6v2h-7c-.55228475 0-1-.4477153-1-1v-4c0-.55228475.44771525-1 1-1zm5-7c.5522847 0 1 .44771525 1 1v4c0 .55228475-.4477153 1-1 1h-12c-.55228475 0-1-.44771525-1-1v-4c0-.55228475.44771525-1 1-1zm-1 2h-10v2h10z" fill="#010101"/></svg>
