<svg height="16" viewBox="0 0 16 16" width="16" xmlns="http://www.w3.org/2000/svg"><path d="m6.5 9c.24545989 0 .44960837.17687516.49194433.41012437l.00805567.08987563v4c0 .2761424-.22385763.5-.5.5-.24545989 0-.44960837-.1768752-.49194433-.4101244l-.00805567-.0898756v-2.794l-3.64644661 3.6475534c-.19526215.1952621-.51184463.1952621-.70710678 0-.17356635-.1735664-.1928515-.4429908-.05785545-.6378589l.05785545-.0692479 3.64555339-3.6464466h-2.792c-.24545989 0-.44960837-.17687516-.49194433-.41012437l-.00805567-.08987563c0-.24545989.17687516-.44960837.41012437-.49194433l.08987563-.00805567zm7.5-.5v5.5h-5.5v-1h4.5v-4.5zm-6.5-6.5v1h-4.5v4.5h-1v-5.5zm6.8535534-.35355339c.1735663.17356635.1928515.44299075.0578554.63785889l-.0578554.06924789-3.6475534 3.64644661h2.794c.2454599 0 .4496084.17687516.4919443.41012437l.0080557.08987563c0 .24545989-.1768752.44960837-.4101244.49194433l-.0898756.00805567h-4c-.24545989 0-.44960837-.17687516-.49194433-.41012437l-.00805567-.08987563v-4c0-.27614237.22385763-.5.5-.5.24545989 0 .44960837.17687516.49194433.41012437l.00805567.08987563v2.792l3.6464466-3.64555339c.1952622-.19526215.5118446-.19526215.7071068 0z" fill="#010101"/></svg>
