<svg height="16" viewBox="0 0 16 16" width="16" xmlns="http://www.w3.org/2000/svg"><path d="m7 2v1h-4v10h10v-4h1v4c0 .5522847-.4477153 1-1 1h-10c-.55228475 0-1-.4477153-1-1v-10c0-.55228475.44771525-1 1-1zm7.5-1c.2454599 0 .4496084.17687516.4919443.41012437l.0080557.08987563v5c0 .27614237-.2238576.5-.5.5-.2454599 0-.4496084-.17687516-.4919443-.41012437l-.0080557-.08987563v-3.794l-6.64644661 6.64755339c-.19526215.19526215-.51184463.19526215-.70710678 0-.17356635-.17356635-.1928515-.44299075-.05785545-.63785889l.05785545-.06924789 6.64555339-6.64644661h-3.792c-.24545989 0-.44960837-.17687516-.49194433-.41012437l-.00805567-.08987563c0-.24545989.17687516-.44960837.41012437-.49194433l.08987563-.00805567z" fill="#010101"/></svg>
