<svg height="24" viewBox="0 0 24 24" width="24" xmlns="http://www.w3.org/2000/svg"><path d="m12 2c4.1421356 0 7.5 3.35786438 7.5 7.5 0 6.5-7.5 11.5-7.5 11.5l-.3013654-.212337c-1.3997345-1.0164085-7.1986346-5.5721458-7.1986346-11.287663 0-4.14213562 3.35786438-7.5 7.5-7.5zm0 2c-3.03756612 0-5.5 2.46243388-5.5 5.5 0 2.2584574 1.18941793 4.597646 3.22988015 6.8421544.62282165.6851038 1.28631705 1.3179355 1.95591535 1.8876106l.3142045.260235.3142045-.260235c.5356787-.4557401 1.0674514-.9519004 1.5776181-1.482908l.3782973-.4047026c2.0404622-2.2445084 3.2298801-4.583697 3.2298801-6.8421544 0-3.03756612-2.4624339-5.5-5.5-5.5zm0 3c1.6568542 0 3 1.34314575 3 3 0 1.6568542-1.3431458 3-3 3s-3-1.3431458-3-3c0-1.65685425 1.3431458-3 3-3zm0 2c-.5522847 0-1 .44771525-1 1 0 .5522847.4477153 1 1 1s1-.4477153 1-1c0-.55228475-.4477153-1-1-1z" fill="#010101"/></svg>
