<svg height="16" viewBox="0 0 16 16" width="16" xmlns="http://www.w3.org/2000/svg"><path d="m8 1c1.65685425 0 3 1.34314575 3 3v2h1c.5522847 0 1 .50367966 1 1.125v6.75c0 .6213203-.4477153 1.125-1 1.125h-8c-.55228475 0-1-.5036797-1-1.125v-6.75c0-.62132034.44771525-1.125 1-1.125h1v-2c0-1.65685425 1.34314575-3 3-3zm4 6h-8v7h8zm-4 2c.55228475 0 1 .44771525 1 1 0 .5522847-.44771525 1-1 1s-1-.4477153-1-1c0-.55228475.44771525-1 1-1zm0-7c-1.0543618 0-1.91816512.81587779-1.99451426 1.85073766l-.00548574.14926234v2h4v-2c0-1.1045695-.8954305-2-2-2z" fill="#010101"/></svg>
