<svg height="24" viewBox="0 0 24 24" width="24" xmlns="http://www.w3.org/2000/svg"><path d="m10 12c1.7770631 0 3.3736859.7725565 4.4723307 2.0001315l-6.4723307-.0001315c-2.14219539 0-3.89107888 1.6839685-3.99510469 3.8003597l-.00489531.1996403v2h12v2h-14v-4c0-3.3137085 2.6862915-6 6-6zm8.6128994 1.2097046.0942074.0831886 3 3c.3604839.360484.3882135.927715.0831886 1.3200062l-.0831886.0942074-3 3c-.3905243.3905243-1.0236893.3905243-1.4142136 0-.3604839-.360484-.3882135-.927715-.0831886-1.3200062l.0831886-.0942074 1.2921068-1.2928932h-6.585c-.5522847 0-1-.4477153-1-1 0-.5128358.3860402-.9355072.8833789-.9932723l.1166211-.0067277h6.585l-1.2921068-1.2928932c-.3604839-.360484-.3882135-.927715-.0831886-1.3200062l.0831886-.0942074c.360484-.3604839.927715-.3882135 1.3200062-.0831886zm-9.6128994-10.2097046c2.209139 0 4 1.790861 4 4s-1.790861 4-4 4-4-1.790861-4-4 1.790861-4 4-4zm0 2c-1.1045695 0-2 .8954305-2 2s.8954305 2 2 2 2-.8954305 2-2-.8954305-2-2-2z" fill="#010101"/></svg>
