<svg height="16" viewBox="0 0 16 16" width="16" xmlns="http://www.w3.org/2000/svg"><path d="m14 2c.5522847 0 1 .44771525 1 1v10c0 .5522847-.4477153 1-1 1h-12c-.55228475 0-1-.4477153-1-1v-10c0-.55228475.44771525-1 1-1zm0 1.706-4.93933983 4.94044661c-.54917478.54917478-1.41823719.58349821-2.00739793.10297027l-.11392241-.10297027-4.93933983-4.93944661v9.293h12zm-.708-.706h-10.585l4.93944661 4.93933983c.17356635.17356635.44299075.1928515.63785889.05785545l.06924789-.05785545z" fill="#010101"/></svg>
