<svg height="24" viewBox="0 0 24 24" width="24" xmlns="http://www.w3.org/2000/svg"><path d="m20 5c1.1045695 0 2 .8954305 2 2v8c0 1.1045695-.8954305 2-2 2h-1v3.8257794c0 .5522847-.4477153 1-1 1-.2387113 0-.4695483-.0853922-.6507914-.2407434l-5.3492086-4.585036h-5c-1.1045695 0-2-.8954305-2-2v-8c0-1.1045695.8954305-2 2-2zm0 2h-13v8h5.7398482l4.2601518 3.652v-3.652h3zm-6-5v2h-9c-.51283584 0-.93550716.38604019-.99327227.88337887l-.00672773.11662113v7h-2v-7c0-1.59768088 1.24891996-2.90366088 2.82372721-2.99490731l.17627279-.00509269z" fill="#010101"/></svg>
