<svg height="16" viewBox="0 0 16 16" width="16" xmlns="http://www.w3.org/2000/svg"><path d="m5 3h3.5c1.38071187 0 2.5 1.11928813 2.5 2.5 0 .63584783-.2373789 1.21625285-.6283513 1.65742951.9504612.35187383 1.6283513 1.2680573 1.6283513 2.34257049 0 1.3807119-1.1192881 2.5-2.5 2.5h-4.5zm4.5 5h-3.5v3h3.5c.8284271 0 1.5-.6715729 1.5-1.5 0-.77969612-.5948881-1.42044868-1.35553999-1.49313342zm-1-4h-2.5v3h2.5c.82842712 0 1.5-.67157288 1.5-1.5 0-.77969612-.59488808-1.42044868-1.35553999-1.49313342z" fill="#010101"/></svg>
