<svg height="24" viewBox="0 0 24 24" width="24" xmlns="http://www.w3.org/2000/svg"><path d="m20 14c.5128358 0 .9355072.3860402.9932723.8833789l.0067277.1166211v3c0 1.5976809-1.24892 2.9036609-2.8237272 2.9949073l-.1762728.0050927h-12c-1.59768088 0-2.90366088-1.24892-2.99490731-2.8237272l-.00509269-.1762728v-3c0-.5522847.44771525-1 1-1 .51283584 0 .93550716.3860402.99327227.8833789l.00672773.1166211v3c0 .5128358.38604019.9355072.88337887.9932723l.11662113.0067277h12c.5128358 0 .9355072-.3860402.9932723-.8833789l.0067277-.1166211v-3c0-.5522847.4477153-1 1-1zm-8-10 .0193545.00018615c.0233265.00044874.0466404.00170883.0698956.00378026l-.0892501-.00396641c.0506203 0 .1003621.00376119.1489612.01101934.0169878.00260874.0344141.00568283.0517646.00922073.0220203.00439973.0437107.00959356.0651138.0154809.0156237.00437676.0310117.00900775.0463029.01401712.0196552.0063844.0394367.01357765.058916.02136587.0177371.00709246.03504.01457509.052163.0225694.0206699.00970328.0410724.02012056.0610555.03120241.0121174.00662306.0243361.01373115.0364318.02111968.0255662.01572325.0504219.03249464.0744505.05031806.0060493.00440435.011914.00886103.0177401.0133911.0067634.00536652.009663.00766749.0125496.00998416l.0816578.07320445 4 4c.3905243.39052429.3905243 1.02368927 0 1.41421356-.360484.36048392-.927715.38821352-1.3200062.08318861l-.0942074-.08318861-2.2928932-2.29210678v8.585c0 .5522847-.4477153 1-1 1-.5128358 0-.9355072-.3860402-.9932723-.8833789l-.0067277-.1166211v-8.587l-2.29289322 2.29410678c-.36048396.36048392-.92771502.38821352-1.32000622.08318861l-.09420734-.08318861c-.36048396-.36048396-.3882135-.92771502-.08318861-1.32000622l.08318861-.09420734 3.99999998-4 .0816578-.07320445c.0028866-.00231667.0057862-.00461764.0086989-.00690281l-.0903567.08010726c.0353941-.03539405.0727812-.06758027.1118002-.09655864.0241759-.01784449.0490316-.03461588.0746464-.05026715.0120471-.00746051.0242658-.0145686.0365981-.02139626.0197682-.01087725.0401707-.02129453.060963-.03101739.0170006-.00797473.0343035-.01545736.0517631-.02242829.0197568-.00790975.0395383-.015103.0595996-.02167881.0148851-.00481796.0302731-.00944895.0457434-.01370154.0215565-.00601151.0432469-.01120534.0651989-.01567999.0174188-.00346298.0348451-.00653707.0523272-.00914735.0189711-.00290557.0386199-.00525168.0584349-.00701982.0243669-.00213238.0480122-.00339866.0716699-.00383043.0055637-.00010731.0119559-.00016755.0183621-.00016755z" fill="#010101"/></svg>
