<svg xmlns="http://www.w3.org/2000/svg" width="24" height="24" viewBox="0 0 24 24">
  <path fill="#010101" d="M4,2 L4,20 L22,20 L22,22 L2,22 L2,2 L4,2 Z M6.91036648,3.58619706 L8.898,7.959 L11.2106306,5.1851933 L13.151,9.067 L15.8941684,4.13137077 L18.862,8.286 L20.0896335,5.58619706 L21.9103665,6.41380294 L20.204,10.166 L21.8137335,12.4187618 L20.1862665,13.5812382 L19.248,12.268 L16.042986,19.32204 L13.058,13.354 L10.9106292,17.2199935 L8.395,11.687 L6.76822128,13.6401844 L5.23177872,12.3598156 L7.476,9.665 L5.08963352,4.41380294 L6.91036648,3.58619706 Z M16.106,7.868 L14.235,11.235 L15.957,14.677 L17.906,10.388 L16.106,7.868 Z M10.789,8.815 L9.817,9.981 L11.089,12.779 L11.974,11.186 L10.789,8.815 Z"/>
</svg>
