<svg height="16" viewBox="0 0 16 16" width="16" xmlns="http://www.w3.org/2000/svg"><path d="m8 1c3.8659932 0 7 3.13400675 7 7 0 2.2435171-.8376553 3.5-2.5 3.5-.901432 0-1.5541371-.4470671-1.9778856-1.3203219-.4847528.8624823-1.33497045 1.3203219-2.5221144 1.3203219-1.8704272 0-3-1.46745-3-3.5 0-2.03254997 1.1295728-3.5 3-3.5.81385268 0 1.46935475.21517816 1.95757512.62843123.01154415-.2163636.02636956-.43891449.04389768-.66677948.0211791-.27532899.2615465-.48135815.5368754-.46017899.275329.02117915.4813582.2615465.460179.53687549-.0725953.94373942-.096805 1.77071327-.0757779 2.48424692.0519498.29929688.0772507.62611004.0772507.97740483l-.0010581.10568814c.1931833 1.61927235.7153756 2.39431186 1.5010581 2.39431186 1.0043219 0 1.5-.74351709 1.5-2.5 0-3.3137085-2.6862915-6-6-6s-6 2.6862915-6 6c0 3.2383969 2.56557489 5.8775718 5.77506174 5.9958615l.22493826.0041385h3c.2761424 0 .5.2238576.5.5 0 .2454599-.1768752.4496084-.4101244.4919443l-.0898756.0080557h-3c-3.86599325 0-7-3.1340068-7-7 0-3.86599325 3.13400675-7 7-7zm0 4.5c-1.25253773 0-2 .97104279-2 2.5s.74746227 2.5 2 2.5c1.36255594 0 2-.76268773 2-2.5l-.00209891.11197631c-.03441272-.31376277-.05769618-.64874005-.07008015-1.00468917-.19918205-1.10923839-.82674597-1.60728714-1.92782094-1.60728714z" fill="inherit"/></svg>