<svg height="24" viewBox="0 0 24 24" width="24" xmlns="http://www.w3.org/2000/svg"><path d="m10.6128994 5.20970461.0942074.08318861 6 5.99999998c.3604839.360484.3882135.927715.0831886 1.3200062l-.0831886.0942074-6 6c-.3905243.3905243-1.02368929.3905243-1.41421358 0-.36048396-.360484-.3882135-.927715-.08318861-1.3200062l.08318861-.0942074 4.29110678-4.2928932h-10.584c-.55228475 0-1-.4477153-1-1 0-.5128358.38604019-.9355072.88337887-.9932723l.11662113-.0067277h10.586l-4.29310678-4.29289322c-.36048396-.36048396-.3882135-.92771502-.08318861-1.32000622l.08318861-.09420734c.36048396-.36048396.92771498-.3882135 1.32000618-.08318861zm5 0 .0942074.08318861 6 5.99999998c.3604839.360484.3882135.927715.0831886 1.3200062l-.0831886.0942074-6 6c-.3905243.3905243-1.0236893.3905243-1.4142136 0-.3604839-.360484-.3882135-.927715-.0831886-1.3200062l.0831886-.0942074 5.2921068-5.2928932-5.2921068-5.29289322c-.3604839-.36048396-.3882135-.92771502-.0831886-1.32000622l.0831886-.09420734c.360484-.36048396.927715-.3882135 1.3200062-.08318861z" fill="#010101"/></svg>
