<svg height="16" viewBox="0 0 16 16" width="16" xmlns="http://www.w3.org/2000/svg"><path d="m8 1.5c.24545989 0 .44960837.17687516.49194433.41012437l.00805567.08987563v10.792l4.1464466-4.14555339c.1735664-.17356635.4429908-.1928515.6378589-.05785545l.0692479.05785545c.1735663.17356635.1928515.44299075.0578554.63785889l-.0578554.06924789-5.00000001 5.00000001-.01226696.0118579c-.01246775.0116495-.02553219.0226684-.03914251.033006l.05140947-.0448639c-.02683427.0268343-.05595982.0499808-.08674687.0694396-.01112405.0069877-.02275985.0137137-.03467928.0199727-.01385155.0072847-.02758838.0136828-.04153214.0194237-.01257003.0052021-.02585825.0100525-.03939593.0143422-.01536446.0048204-.03072492.0088723-.04621212.0121827-.01068083.0023328-.02173457.0043155-.03290781.0059287-.01720848.0024519-.03434447.004034-.05150976.0047363-.0068122.0002811-.01367454.0004207-.02056948.0004207l-.01956651-.0003806c-.01750074-.0006812-.03497251-.0022765-.0523376-.0047861l.07190411.0051667c-.03609704 0-.07130067-.0038252-.10522765-.0110922-.0152466-.0033039-.03060706-.0073558-.04578399-.0121491-.01372521-.0043168-.02701343-.0091672-.04002492-.0145509-.0135023-.0055593-.02723913-.0119574-.04072163-.0190128-.01228848-.0064883-.02392428-.0132143-.03525213-.020383-.00569159-.0035452-.01152606-.0074066-.01729518-.0114032l-.01783842-.0129915c-.01361032-.0103376-.02667476-.0213565-.03914251-.033006l-.01226696-.0118579-5-5.00000001c-.19526215-.19526215-.19526215-.51184463 0-.70710678.17356635-.17356635.44299075-.1928515.63785889-.05785545l.06924789.05785545 4.14644661 4.14555339v-10.792c0-.27614237.22385763-.5.5-.5z" fill="#010101"/></svg>
