<svg width="16" height="16" viewBox="0 0 16 16" fill="none" xmlns="http://www.w3.org/2000/svg">
<path fill-rule="evenodd" clip-rule="evenodd" d="M2 7.5C2 4.46243 4.46243 2 7.5 2H8.5C11.5376 2 14 4.46243 14 7.5V9.5C14 10.3284 13.3284 11 12.5 11C11.6716 11 11 10.3284 11 9.5V8V4.5H10V5.76389C9.46924 5.28885 8.76835 5 8 5C6.34315 5 5 6.34315 5 8C5 9.65685 6.34315 11 8 11C8.81099 11 9.54682 10.6782 10.0868 10.1553C10.3747 11.2182 11.346 12 12.5 12C13.8807 12 15 10.8807 15 9.5V7.5C15 3.91015 12.0899 1 8.5 1H7.5C3.91015 1 1 3.91015 1 7.5V8.5C1 12.0899 3.91015 15 7.5 15H11.5C11.7761 15 12 14.7761 12 14.5C12 14.2239 11.7761 14 11.5 14H7.5C4.46243 14 2 11.5376 2 8.5V7.5ZM10 8C10 6.89543 9.10457 6 8 6C6.89543 6 6 6.89543 6 8C6 9.10457 6.89543 10 8 10C9.10457 10 10 9.10457 10 8Z" fill="#010101"/>
</svg>
