<svg height="16" viewBox="0 0 16 16" width="16" xmlns="http://www.w3.org/2000/svg"><path d="m7 1c1.59768088 0 2.90366088 1.24891996 2.99490731 2.82372721l.00509269.17627279v7c0 1.1045695-.8954305 2-2 2-1.0543618 0-1.91816512-.8158778-1.99451426-1.8507377l-.00548574-.1492623v-6c0-.27614237.22385763-.5.5-.5.24545989 0 .44960837.17687516.49194433.41012437l.00805567.08987563v6c0 .5522847.44771525 1 1 1 .51283584 0 .93550716-.3860402.99327227-.8833789l.00672773-.1166211v-7c0-1.1045695-.8954305-2-2-2-1.0543618 0-1.91816512.81587779-1.99451426 1.85073766l-.00548574.14926234v7c0 1.6568542 1.34314575 3 3 3 1.59768088 0 2.9036609-1.24892 2.9949073-2.8237272l.0050927-.1762728v-6c0-.27614237.2238576-.5.5-.5.2454599 0 .4496084.17687516.4919443.41012437l.0080557.08987563v6c0 2.209139-1.790861 4-4 4-2.14219539 0-3.89107888-1.6839685-3.99510469-3.8003597l-.00489531-.1996403v-7c0-1.65685425 1.34314575-3 3-3z" fill="#010101"/></svg>
