<svg height="24" viewBox="0 0 24 24" width="24" xmlns="http://www.w3.org/2000/svg"><path d="m12 2c5.5228475 0 10 4.4771525 10 10s-4.4771525 10-10 10-10-4.4771525-10-10 4.4771525-10 10-10zm-8 10c0 4.418278 3.581722 8 8 8 1.8482015 0 3.550021-.6267357 4.9045228-1.6792713l-11.22525155-11.22525145c-1.05253554 1.35450171-1.67927125 3.05632125-1.67927125 4.90452275zm8-8c-1.8482015 0-3.55002104.62673571-4.90452275 1.67927125l11.22525145 11.22525155c1.0525356-1.3545018 1.6792713-3.0563213 1.6792713-4.9045228 0-4.418278-3.581722-8-8-8z" fill="#010101"/></svg>