<svg height="24" viewBox="0 0 24 24" width="24" xmlns="http://www.w3.org/2000/svg"><path d="m12 2 .7107438.59386844c4.8595041 4.12578959 7.2892562 7.59450006 7.2892562 10.40613156 0 4.418278-3.581722 8-8 8s-8-3.581722-8-8c0-2.9455187 2.66666667-6.61218533 8-11zm0 2.622-.0329398.0285003c-4.02301496 3.52656794-5.9670602 6.3825978-5.9670602 8.3494997 0 3.3137085 2.6862915 6 6 6 1.7765803 0 3.3728184-.7721368 4.4714352-1.9991311l-4.4714352-.0008689v-2l5.6583461.0006859c.2212575-.6257517.3416539-1.2991587.3416539-2.0006859h-6v-2l5.4741547.0012933c-.292464-.616862-.7077564-1.28470908-1.2479549-2.00017519l-4.2261998-.00111811v-2l2.5057661.00111675c-.6277221-.65641821-1.3414631-1.34314315-2.1423846-2.05829264z" fill="#010101"/></svg>
