<svg height="16" viewBox="0 0 16 16" width="16" xmlns="http://www.w3.org/2000/svg"><path d="m8 5c2.7614237 0 5 2.23857625 5 5 0 2.7614237-2.2385763 5-5 5-2.76142375 0-5-2.2385763-5-5 0-2.76142375 2.23857625-5 5-5zm0 1c-2.209139 0-4 1.790861-4 4s1.790861 4 4 4 4-1.790861 4-4-1.790861-4-4-4zm-1 3.333v2.667h-1v-4h1l2 2.667v-2.667h1v4h-1zm.64644661-8.68655339c.19526215-.19526215.51184463-.19526215.70710678 0l2.50000001 2.5c.3149824.31498243.091899.85355339-.3535534.85355339h-5c-.44545243 0-.66853582-.53857096-.35355339-.85355339zm.35355339 1.06055339-1.294 1.293h2.587z" fill="#010101"/></svg>
