<svg height="24" viewBox="0 0 24 24" width="24" xmlns="http://www.w3.org/2000/svg"><path d="m8.46481624 3c.33435319 0 .64658452.16710114.8320503.4452998l1.70313346 2.5547002h7c1.1045695 0 2 .8954305 2 2v1.999l2 .001c.6931133 0 1.1639458.6820192.948521 1.3175237l-.0423379.1053618-2.9061831 6.2261145v.351c0 1.1045695-.8954305 2-2 2h-14c-1.1045695 0-2-.8954305-2-2v-13c0-1.1045695.8954305-2 2-2zm11.96418376 9h-13.753l-2.4 6h13.353zm-12.5-7h-3.929v8.306l1.07152331-2.6773907c.13667702-.3416925.44818881-.577512.80721584-.621259l.12126085-.0073503 12-.001v-1.999h-8.07036752z" fill="#010101"/></svg>
