<svg width="24" height="24" viewBox="0 0 24 24" fill="none" xmlns="http://www.w3.org/2000/svg">
<path fill-rule="evenodd" clip-rule="evenodd" d="M4.70711 3.29289L20.7071 19.2929L19.2929 20.7071L3.29289 4.70711L4.70711 3.29289ZM21.2071 11.2071L17.8313 14.5829L16.4171 13.1687L19.7929 9.79289C20.7831 8.8027 20.7831 7.19729 19.7929 6.2071C18.8458 5.25997 17.3357 5.21879 16.3396 6.08356L16.2071 6.2071L15.7071 6.7071L14.2929 5.29289L14.7929 4.79289C16.5641 3.02165 19.4359 3.02165 21.2071 4.79289C22.923 6.50877 22.9766 9.25746 21.368 11.0379L21.2071 11.2071ZM14.1418 17.3902L12.136 15.3844C11.797 15.2618 11.4789 15.0647 11.2071 14.7929C10.9353 14.5211 10.7382 14.203 10.6156 13.864L8.60979 11.8582C8.21999 13.3628 8.61435 15.0286 9.79289 16.2071C10.9714 17.3856 12.6372 17.78 14.1418 17.3902ZM12.7929 8.2071C13.3574 8.77161 13.6001 9.53608 13.5209 10.2725L15.1287 11.8803C15.89 10.2081 15.5828 8.16858 14.2071 6.79289C12.8314 5.4172 10.7919 5.10998 9.11966 5.87125L10.7275 7.47906C11.4639 7.39991 12.2284 7.64259 12.7929 8.2071ZM7.0829 10.3313L5.66868 8.9171L2.79289 11.7929L2.63203 11.9621C1.02338 13.7425 1.077 16.4912 2.79289 18.2071C4.56413 19.9783 7.43587 19.9783 9.2071 18.2071L9.7071 17.7071L8.29289 16.2929L7.79289 16.7929L7.66035 16.9164C6.66426 17.7812 5.15424 17.74 4.2071 16.7929C3.21692 15.8027 3.21692 14.1973 4.2071 13.2071L7.0829 10.3313Z" fill="#010101"/>
</svg>
