<svg width="16" height="16" viewBox="0 0 16 16" fill="none" xmlns="http://www.w3.org/2000/svg">
<path fill-rule="evenodd" clip-rule="evenodd" d="M1.64645 2.35356L13.6465 14.3536L14.3536 13.6465L2.35356 1.64645L1.64645 2.35356ZM9.35355 4.64644C10.2958 5.58872 10.555 6.95539 10.1312 8.13116L9.30807 7.30807C9.40018 6.61418 9.17963 5.88674 8.64644 5.35355C8.11325 4.82036 7.38581 4.59982 6.69192 4.69192L5.86884 3.86884C7.0446 3.44497 8.41128 3.70417 9.35355 4.64644ZM7.35355 9.64644C7.11115 9.40404 6.93337 9.1215 6.82021 8.82021L5.6863 7.6863C5.5966 8.63938 5.91665 9.62376 6.64644 10.3536C7.37624 11.0833 8.36061 11.4034 9.3137 11.3137L8.17979 10.1798C7.8785 10.0666 7.59595 9.88884 7.35355 9.64644ZM2.35355 8.35355L4.35355 6.35355L3.64644 5.64644L1.64644 7.64644L1.50737 7.79411C0.348395 9.10127 0.394754 11.1019 1.64644 12.3536C2.94628 13.6534 5.05372 13.6534 6.35355 12.3536L5.64644 11.6464L5.51905 11.7648C4.60428 12.5539 3.22153 12.5144 2.35355 11.6464C1.44424 10.7371 1.44424 9.26286 2.35355 8.35355ZM11.1464 9.14644L11.8536 9.85355L14.3536 7.35355L14.4926 7.20588C15.6516 5.89872 15.6052 3.89813 14.3536 2.64644C13.0537 1.34661 10.9463 1.34661 9.64644 2.64644L10.3536 3.35355L10.4809 3.23519C11.3957 2.44612 12.7785 2.48557 13.6464 3.35355C14.5558 4.26286 14.5558 5.73714 13.6464 6.64644L11.1464 9.14644Z" fill="#010101"/>
</svg>
