<svg height="16" viewBox="0 0 16 16" width="16" xmlns="http://www.w3.org/2000/svg"><path d="m9.35355339 4.64644661c1.25168971 1.25168973 1.29804861 3.25227605.13907664 4.5594396l-.13907664.14766718-.70710678-.70710678c.90930735-.90930735.90930735-2.38358587 0-3.29289322-.8679752-.8679752-2.25072784-.90742862-3.16550099-.11836025l-.12739223.11836025-3 3c-.90930735.90930735-.90930735 2.38358591 0 3.29289321.8679752.8679752 2.25072784.9074286 3.16550099.1183603l.12739223-.1183603.70710678.7071068c-1.29983164 1.2998316-3.40727514 1.2998316-4.70710678 0-1.25168973-1.2516897-1.29804861-3.25227606-.13907664-4.55943961l.13907664-.14766718 3-3c1.29983164-1.29983165 3.40727514-1.29983165 4.70710678 0zm5.00000001-2c1.2516897 1.25168973 1.2980486 3.25227605.1390766 4.5594396l-.1390766.14766718-3 3.00000001c-1.2998317 1.2998316-3.40727515 1.2998316-4.70710679 0-1.25168973-1.25168974-1.29804861-3.25227606-.13907664-4.55943961l.13907664-.14766718.70710678.70710678c-.90930735.90930735-.90930735 2.38358587 0 3.29289322.8679752.86797519 2.25072784.90742859 3.16550101.11836025l.1273922-.11836025 3-3c.9093074-.90930735.9093074-2.38358587 0-3.29289322-.8679752-.8679752-2.2507278-.90742862-3.165501-.11836025l-.1273922.11836025-.70710679-.70710678c1.29983169-1.29983165 3.40727509-1.29983165 4.70710679 0z" fill="#010101"/></svg>
