<svg height="16" viewBox="0 0 16 16" width="16" xmlns="http://www.w3.org/2000/svg"><path d="m13 1c.5522847 0 1 .44771525 1 1v12c0 .5522847-.4477153 1-1 1h-7v-6h1v5h6v-12h-6v2h-1v-3zm-8.64644661 2.14644661c.17356635.17356635.1928515.44299075.05785545.63785889l-.05785545.06924789-2.14855339 2.14644661h8.295c.2761424 0 .5.22385763.5.5 0 .24545989-.1768752.44960837-.4101244.49194433l-.0898756.00805567h-8.293l2.14655339 2.14644661c.17356635.17356635.1928515.44299075.05785545.63785889l-.05785545.06924789c-.17356635.17356631-.44299075.19285151-.63785889.05785545l-.06924789-.05785545-3-3c-.17356635-.17356635-.1928515-.44299075-.05785545-.63785889l.05785545-.06924789 3-3c.19526215-.19526215.51184463-.19526215.70710678 0z" fill="#010101"/></svg>
