<svg height="16" viewBox="0 0 16 16" width="16" xmlns="http://www.w3.org/2000/svg"><path d="m10 1v3h-1v-2h-6v12h6v-5h1v6h-7c-.55228475 0-1-.4477153-1-1v-12c0-.55228475.44771525-1 1-1zm2.2843055 2.08859116.0692479.05785545 3 3c.1735663.17356635.1928515.44299075.0578554.63785889l-.0578554.06924789-3 3c-.1952622.19526211-.5118446.19526211-.7071068 0-.1735663-.17356635-.1928515-.44299075-.0578554-.63785889l.0578554-.06924789 2.1465534-2.14644661h-8.293c-.27614237 0-.5-.22385763-.5-.5 0-.24545989.17687516-.44960837.41012437-.49194433l.08987563-.00805567h8.293l-2.1465534-2.14644661c-.1735663-.17356635-.1928515-.44299075-.0578554-.63785889l.0578554-.06924789c.1735664-.17356635.4429908-.1928515.6378589-.05785545z" fill="#010101"/></svg>
