<svg height="16" viewBox="0 0 16 16" width="16" xmlns="http://www.w3.org/2000/svg"><path d="m8 1c3.8659932 0 7 3.13400675 7 7 0 3.8659932-3.1340068 7-7 7-3.86599325 0-7-3.1340068-7-7 0-3.86599325 3.13400675-7 7-7zm0 1c-3.3137085 0-6 2.6862915-6 6s2.6862915 6 6 6 6-2.6862915 6-6-2.6862915-6-6-6zm0 9c.55228475 0 1 .4477153 1 1s-.44771525 1-1 1-1-.4477153-1-1 .44771525-1 1-1zm0-7.5c1.38071187 0 2.5 1.11928813 2.5 2.5 0 1.15979797-.7897697 2.13513535-1.86084946 2.41755248l-.13915054.03144752v1.551h-1v-2.5h.5c.82842712 0 1.5-.67157288 1.5-1.5s-.67157288-1.5-1.5-1.5c-.77969612 0-1.42044868.59488808-1.49313342 1.35553999l-.00686658.14446001h-1c0-1.38071187 1.11928813-2.5 2.5-2.5z" fill="#010101"/></svg>
