<svg height="16" viewBox="0 0 16 16" width="16" xmlns="http://www.w3.org/2000/svg"><path d="m5 4.5c.24545989 0 .44960837.17687516.49194433.41012437l.00805567.08987563v7.793l2.14644661-2.1465534c.17356635-.1735663.44299075-.1928515.63785889-.0578554l.06924789.0578554c.17356635.1735664.1928515.4429908.05785545.6378589l-.05785545.0692479-3 3c-.17356635.1735663-.44299075.1928515-.63785889.0578554l-.06924789-.0578554-3-3c-.19526215-.1952622-.19526215-.5118446 0-.7071068.17356635-.1735663.44299075-.1928515.63785889-.0578554l.06924789.0578554 2.14644661 2.1465534v-7.793c0-.27614237.22385763-.5.5-.5zm6.2843055-2.91140884.0692479.05785545 3 3c.1952621.19526215.1952621.51184463 0 .70710678-.1735664.17356635-.4429908.1928515-.6378589.05785545l-.0692479-.05785545-2.1464466-2.14655339v7.793c0 .2761424-.2238576.5-.5.5-.2454599 0-.4496084-.1768752-.4919443-.4101244l-.0080557-.0898756v-7.795l-2.14644661 2.14855339c-.17356635.17356635-.44299075.1928515-.63785889.05785545l-.06924789-.05785545c-.17356635-.17356635-.1928515-.44299075-.05785545-.63785889l.05785545-.06924789 2.99999999-3c.1735664-.17356635.4429908-.1928515.6378589-.05785545z" fill="#010101"/></svg>
