<svg height="24" viewBox="0 0 24 24" width="24" xmlns="http://www.w3.org/2000/svg"><path d="m8 6.5c.51283584 0 .93550716.38604019.99327227.88337887l.00672773.11662113v9.084l1.2928932-1.2911068c.360484-.3604839.927715-.3882135 1.3200062-.0831886l.0942074.0831886c.3604839.360484.3882135.927715.0831886 1.3200062l-.0831886.0942074-3.00000002 3c-.36048396.3604839-.92771502.3882135-1.32000622.0831886l-.09420734-.0831886-3-3c-.39052429-.3905243-.39052429-1.0236893 0-1.4142136.36048396-.3604839.92771502-.3882135 1.32000622-.0831886l.09420734.0831886 1.29289322 1.2931068v-9.086c0-.55228475.44771525-1 1-1zm8.6128994-2.29029539.0942074.08318861 3 3c.3905243.39052429.3905243 1.02368927 0 1.41421356-.360484.36048396-.927715.3882135-1.3200062.08318861l-.0942074-.08318861-1.2928932-1.29210678v9.585c0 .5522847-.4477153 1-1 1-.5128358 0-.9355072-.3860402-.9932723-.8833789l-.0067277-.1166211v-9.587l-1.2928932 1.29410678c-.360484.36048396-.927715.3882135-1.3200062.08318861l-.0942074-.08318861c-.3604839-.36048396-.3882135-.92771502-.0831886-1.32000622l.0831886-.09420734 3-3c.360484-.36048396.927715-.3882135 1.3200062-.08318861z" fill="#010101"/></svg>
