<svg height="16" viewBox="0 0 16 16" width="16" xmlns="http://www.w3.org/2000/svg"><path d="m9.99964199 1 .00035801 2.416.2636902.12482239c.2408478.12245064.4713187.26425678.6891954.42390951l.0141144.0112681 2.0954567-1.20756783 1.9994508 3.4631505-2.0939075 1.20941733.0155367.15094735.0091349.13549569.0073284.27255696c0 .18232599-.0098015.36350856-.0292227.54295202l-.0027773.01504798 2.0939075 1.21041733-1.9994508 3.46315047-2.0954567-1.2085678-.236107.1659161c-.2260265.1475873-.463908.2768251-.7114274.3862044l-.0194656.0078795-.00035801 2.417h-3.99975652l.00011453-2.417-.26299976-.1234714c-.24098176-.1224716-.47157933-.2643188-.68957223-.4240306l-.01542801-.012498-2.09445667 1.2085678-1.99968645-3.4635585 2.09314312-1.2100093-.01450495-.14955564-.00915251-.13562508-.00734254-.27281928c0-.18250223.00982046-.36385862.02927893-.54347171l.00172107-.01552829-2.09314312-1.2090093 1.99968645-3.46355853 2.09445667 1.20756783.23754022-.16519898c.2261493-.14763418.4641631-.27690005.71182095-.38628681l.01863883-.00851421-.00011453-2.416zm-.99964199 1h-2l.00024347 2.12595483c-.71463816.1838869-1.35199546.56029945-1.85348741 1.07065316l-1.84290848-1.06263339-1 1.7320508 1.84110291 1.06313167c-.09446829.34082615-.14495049.69993917-.14495049 1.07084293s.0504822.73001678.14495049 1.07084293l-1.84110291 1.06313167 1 1.7320508 1.84290848-1.0626334c.50149195.5103537 1.13884925.8867663 1.85348741 1.0706532l-.00024347 2.1259548h2l.00076134-2.1262135c.71423079-.1839811 1.35122566-.56028 1.85248256-1.0703945l1.8429085 1.0626334 1-1.7320508-1.8408265-1.06412926c.0942904-.34052928.1446741-.69930343.1446741-1.06984534s-.0503837-.72931606-.1446741-1.06984534l1.8408265-1.06412926-1-1.7320508-1.8429085 1.06263339c-.5012569-.5101145-1.13825177-.88641338-1.85248256-1.07039447zm-1 4c1.1045695 0 2 .8954305 2 2s-.8954305 2-2 2-2-.8954305-2-2 .8954305-2 2-2zm0 1c-.55228475 0-1 .44771525-1 1s.44771525 1 1 1 1-.44771525 1-1-.44771525-1-1-1z" fill="#010101"/></svg>
