<svg height="24" viewBox="0 0 24 24" width="24" xmlns="http://www.w3.org/2000/svg"><path d="m8.397 7.041-6.05136348.87922304-.11377631.02293026c-.73554697.19127832-1.00569137 1.13177635-.44043706 1.68276312l4.37857685 4.26808358-1.03346085 6.0271249-.01302815.1101176c-.0493896.7613373.76369692 1.3122182 1.4639776.9440589l5.4125114-2.8453014 5.4125114 2.8453014.1007022.0464187c.7088125.2822385 1.483989-.3208212 1.3502472-1.1005952l-1.0344608-6.0271249 4.3795769-4.26808358.0785689-.08542701c.4826394-.58709107.1483799-1.50675685-.6327823-1.62026637l-6.0523635-.87922304-2.7052639-5.48356571c-.3668137-.74324572-1.4266585-.74324572-1.7934722 0z" fill="#010101"/></svg>
