<svg height="24" viewBox="0 0 24 24" width="24" xmlns="http://www.w3.org/2000/svg"><path d="m5.26329813 8.09160846 1.73970187 1.73939154-.003.169v2.6055513l-2 2.9994487v.395h8.171l2.7575484 2.7565788c-.3536562 1.847382-1.9780711 3.2434212-3.9285484 3.2434212-2.209139 0-4-1.790861-4-4h-5v-3l2-3v-2c0-.66157907.09177856-1.3017221.26329813-1.90839154zm-.55619135-4.79871524 16.00000002 15.99999998-1.4142136 1.4142136-15.99999998-16.00000002zm9.29289322 14.70710678h-4c0 1.1045695.8954305 2 2 2 1.0543618 0 1.9181651-.8158778 1.9945143-1.8507377zm-1-17 .0010101 2.07103341c3.3918017.48566424 5.9989899 3.40284469 5.9989899 6.92896659v2l2 3v3h-.171l-2-2h.171v-.393l-2-3.0014487v-2.6055513c0-2.76142375-2.2385763-5-5-5-1.169499 0-2.24521834.40151843-3.09682664 1.07422391l-1.42134869-1.42101621c.97889422-.82802638 2.18823517-1.39208419 3.51816713-1.58231766l.0000082-2.07089004z" fill="#010101"/></svg>
