<svg height="16" viewBox="0 0 16 16" width="16" xmlns="http://www.w3.org/2000/svg"><path d="m8.5 1 .00070198 1.02475737c2.52632482.25118732 4.49929802 2.38280869 4.49929802 4.97524263v2l1.5 2v2l-4.0500973.0004345c-.231803 1.1409037-1.24057725 1.9995655-2.4499027 1.9995655s-2.21809967-.8586618-2.44990271-1.9995655l-4.05009729-.0004345v-2l1.5-2v-2c0-2.59277672 1.97349494-4.72461899 4.50030016-4.97534217l-.00030016-1.02465783zm.913 12h-2.827l.01883645.0520151c.20296783.5125531.68021461.8866048 1.25070354.9411183l.14446001.0068666c.6335031 0 1.17528173-.3927191 1.39516355-.9479849zm-1.413-10c-2.14219539 0-3.89107888 1.68396847-3.99510469 3.80035966l-.00489531.19964034v2.33333333l-1.5 1.99966667v.667h11v-.667l-1.5-1.99966667v-2.33333333c0-2.209139-1.790861-4-4-4z" fill="#010101"/></svg>
