<svg height="24" viewBox="0 0 24 24" width="24" xmlns="http://www.w3.org/2000/svg"><path d="m18 7 .0193545.00018615c.0233265.00044874.0466404.00170883.0698956.00378026l-.0892501-.00396641c.0506203 0 .1003621.00376119.1489612.01101934.0169878.00260874.0344141.00568283.0517646.00922073.0220203.00439973.0437107.00959356.0651138.0154809.0156237.00437676.0310117.00900775.0463029.01401712.0196552.0063844.0394367.01357765.058916.02136587.0177371.00709246.03504.01457509.052163.0225694.0206699.00970328.0410724.02012056.0610555.03120241.0121174.00662306.0243361.01373115.0364318.02111968.0255662.01572325.0504219.03249464.0744505.05031806.0060493.00440435.011914.00886103.0177401.0133911.0067634.00536652.009663.00766749.0125496.00998416l.0816578.07320445 3 2.99999998c.3905243.3905243.3905243 1.0236893 0 1.4142136-.360484.3604839-.927715.3882135-1.3200062.0831886l-.0942074-.0831886-1.2928932-1.2921068v7.585c0 1.5976809-1.24892 2.9036609-2.8237272 2.9949073l-.1762728.0050927h-8c-.55228475 0-1-.4477153-1-1 0-.5128358.38604019-.9355072.88337887-.9932723l.11662113-.0067277h8c.5128358 0 .9355072-.3860402.9932723-.8833789l.0067277-.1166211v-7.587l-1.2928932 1.2941068c-.360484.3604839-.927715.3882135-1.3200062.0831886l-.0942074-.0831886c-.3604839-.360484-.3882135-.927715-.0831886-1.3200062l.0831886-.0942074 3-2.99999998.0816578-.07320445c.0028866-.00231667.0057862-.00461764.0086989-.00690281l-.0903567.08010726c.0353941-.03539405.0727812-.06758027.1118002-.09655864.0241759-.01784449.0490316-.03461588.0746464-.05026715.0120471-.00746051.0242658-.0145686.0365981-.02139626.0197682-.01087725.0401707-.02129453.060963-.03101739.0170006-.00797473.0343035-.01545736.0517631-.02242829.0197568-.00790975.0395383-.015103.0595996-.02167881.0148851-.00481796.0302731-.00944895.0457434-.01370154.0215565-.00601151.0432469-.01120534.0651989-.01567999.0174188-.00346298.0348451-.00653707.0523272-.00914735.0189711-.00290557.0386199-.00525168.0584349-.00701982.0243669-.00213238.0480122-.00339866.0716699-.00383043.0055637-.00010731.0119559-.00016755.0183621-.00016755zm-2-4c.5522847 0 1 .44771525 1 1 0 .51283584-.3860402.93550716-.8833789.99327227l-.1166211.00672773h-8c-.51283584 0-.93550716.38604019-.99327227.88337887l-.00672773.11662113v7.584l1.29289322-1.2911068c.36048396-.3604839.92771502-.3882135 1.32000622-.0831886l.09420734.0831886c.36048392.360484.38821352.927715.08318861 1.3200062l-.08318861.0942074-3 3c-.02846631.0284663-.05864086.0552244-.0903567.0801072l.0903567-.0801072c-.03539405.035394-.0727812.0675802-.11180017.0965586-.02417592.0178445-.04903166.0346159-.07464642.0502672-.01204708.0074605-.02426575.0145686-.03659809.0213962-.01976815.0108773-.0401707.0212946-.06096295.0310174-.01700065.0079748-.0343035.0154574-.05176313.0224283-.01975682.0079098-.03953834.015103-.05959961.0216788-.01488507.004818-.03027313.009449-.04574344.0137016-.02155649.0060115-.04324689.0112053-.06519887.0156799-.01741884.003463-.03484509.0065371-.05232723.0091474-.02035242.0031119-.04140945.0055818-.06265588.0073875-.0178879.0014853-.03522002.0025075-.05256421.0030809-.01084489.0003645-.02202425.0005494-.03324678.0005494l-.03225462-.0005171c-.01801175-.0005776-.03601087-.0016393-.05397618-.003185l.0862308.0037021c-.05062028 0-.10036209-.0037612-.14896122-.0110193-.01698779-.0026088-.03441404-.0056829-.05176454-.0092208-.02202032-.0043997-.04371072-.0095935-.06511385-.0154809-.01562367-.0043767-.03101173-.0090077-.04630291-.0140171-.01965516-.0063844-.03943668-.0135776-.058916-.0213659-.01773713-.0070924-.03503998-.014575-.05216303-.0225694-.02066985-.0097032-.0410724-.0201205-.0610554-.0312024-.01211749-.006623-.02433616-.0137311-.0364318-.0211197-.0255662-.0157232-.05042194-.0324946-.07445055-.050318-.00604934-.0044044-.01191404-.008861-.01774014-.0133911-.03556648-.0279642-.06574103-.0547223-.09420734-.0831886l-3-3c-.39052429-.3905243-.39052429-1.0236893 0-1.4142136.36048396-.3604839.92771502-.3882135 1.32000622-.0831886l.09420734.0831886 1.29289322 1.2931068v-7.586c0-1.59768088 1.24891996-2.90366088 2.82372721-2.99490731l.17627279-.00509269z" fill="#010101"/></svg>
