<svg height="16" viewBox="0 0 16 16" width="16" xmlns="http://www.w3.org/2000/svg"><path d="m12.5 3.5.0115408.00013238c.0208604.00047862.0416965.00225512.062377.00532949l-.0739178-.00546187c.036097 0 .0713007.00382515.1052277.01109223.0152466.0033039.030607.00735579.0457839.01214912.0137253.00431675.0270135.0091671.040025.01455089.0135023.00555923.0272391.01195737.0407216.01901273.0122885.00648837.0239243.01321437.0352521.02038304.0056916.00354518.0115261.00740656.0172952.01140315l.0178384.01299157c.0136103.01033752.0266748.02135647.0391425.03300602l.012267.01185786 3 3c.1952621.19526215.1952621.51184463 0 .70710678-.1735664.17356635-.4429908.1928515-.6378589.05785545l-.0692479-.05785545-2.1464466-2.14755339v7.294c0 1.3254834-1.0315359 2.4100387-2.3356243 2.4946823l-.1643757.0053177h-7c-.27614237 0-.5-.2238576-.5-.5 0-.2454599.17687516-.4496084.41012437-.4919443l.08987563-.0080557h7c.7796961 0 1.4204487-.5948881 1.4931334-1.35554l.0068666-.14446v-7.294l-2.14644661 2.14755339c-.17356635.17356635-.44299075.1928515-.63785889.05785545l-.06924789-.05785545c-.17356635-.17356635-.1928515-.44299075-.05785545-.63785889l.05785545-.06924789 2.99999999-3 .012267-.01185786c.0124677-.01164955.0255322-.0226685.0391425-.03300602l-.0514095.04486388c.0268343-.02683427.0559598-.04998079.0867469-.06943956.011124-.00698771.0227598-.01371371.0346793-.01997271.0138515-.00728473.0275883-.01368287.0415321-.01942378.01257-.00520211.0258582-.01005246.0393959-.01434214.0153645-.0048204.0307249-.00887229.0462121-.01218274.0099752-.00218165.0203068-.00405777.0307436-.00561136.0213377-.00313612.0425105-.00491996.0637061-.00536396.0030469-.00006908.0067873-.00011036.0105374-.00011036zm0-2.5c.2761424 0 .5.22385763.5.5 0 .24545989-.1768752.44960837-.4101244.49194433l-.0898756.00805567h-7c-.77969612 0-1.42044868.59488808-1.49313342 1.35553999l-.00686658.14446001v7.293l2.14644661-2.14655339c.17356635-.17356635.44299075-.1928515.63785889-.05785545l.06924789.05785545c.17356635.17356635.1928515.44299075.05785545.63785889l-.05785545.06924789-3 3.00000001-.01226696.0118579c-.01246775.0116495-.02553219.0226684-.03914251.033006l.05140947-.0448639c-.02683427.0268343-.05595982.0499808-.08674687.0694396-.01112405.0069877-.02275985.0137137-.03467928.0199727-.01385155.0072847-.02758838.0136828-.04153214.0194237-.01257003.0052021-.02585825.0100525-.03939593.0143422-.01536446.0048204-.03072492.0088723-.04621212.0121827-.01068083.0023328-.02173457.0043155-.03290781.0059287-.01720848.0024519-.03434447.004034-.05150976.0047363-.0068122.0002811-.01367454.0004207-.02056948.0004207l-.01956651-.0003806c-.01750074-.0006812-.03497251-.0022765-.0523376-.0047861l.07190411.0051667c-.03609704 0-.07130067-.0038252-.10522765-.0110922-.0152466-.0033039-.03060706-.0073558-.04578399-.0121491-.01372521-.0043168-.02701343-.0091672-.04002492-.0145509-.0135023-.0055593-.02723913-.0119574-.04072163-.0190128-.01228848-.0064883-.02392428-.0132143-.03525213-.020383-.00569159-.0035452-.01152606-.0074066-.01729518-.0114032l-.01783842-.0129915c-.01361032-.0103376-.02667476-.0213565-.03914251-.033006l-.01226696-.0118579-3-3.00000001c-.19526215-.19526215-.19526215-.51184463 0-.70710678.17356635-.17356635.44299075-.1928515.63785889-.05785545l.06924789.05785545 2.14644661 2.14655339v-7.293c0-1.3254834 1.03153594-2.41003867 2.33562431-2.49468232l.16437569-.00531768z" fill="#010101"/></svg>
