<svg width="24" height="24" viewBox="0 0 24 24" fill="none" xmlns="http://www.w3.org/2000/svg">
<path fill-rule="evenodd" clip-rule="evenodd" d="M6 7C6 8.10457 5.10457 9 4 9C2.89543 9 2 8.10457 2 7C2 5.89543 2.89543 5 4 5C5.10457 5 6 5.89543 6 7ZM21 16C21.5523 16 22 16.4477 22 17C22 17.5523 21.5523 18 21 18H11C10.4477 18 10 17.5523 10 17C10 16.4477 10.4477 16 11 16H21ZM21 6C21.5523 6 22 6.44772 22 7C22 7.55228 21.5523 8 21 8H11C10.4477 8 10 7.55228 10 7C10 6.44772 10.4477 6 11 6H21ZM4 19C5.10457 19 6 18.1046 6 17C6 15.8954 5.10457 15 4 15C2.89543 15 2 15.8954 2 17C2 18.1046 2.89543 19 4 19Z" fill="#010101"/>
</svg>
