<svg height="24" viewBox="0 0 24 24" width="24" xmlns="http://www.w3.org/2000/svg"><path d="m16 3c2.7614237 0 5 2.23857625 5 5v6c0 1.1045695-.8954305 2-2 2h-3l-.5176697 2.5883484c-.2804545 1.4022726-1.5116989 2.4116516-2.941742 2.4116516h-1.5405883l-1-5-2-2h-5v-11zm-11 2v7h1v-7zm3 7h.82842712l3.01397588 3.0139759.795597 3.9800241.0202329-.0008907c.38658-.0455413.7126357-.312843.8331072-.6829845l.0298289-.1140087.8392232-4.1961161h4.6396078v-6c0-1.59768088-1.24892-2.90366088-2.8237272-2.99490731l-.1762728-.00509269h-8z" fill="#010101"/></svg>
