<svg height="24" viewBox="0 0 24 24" width="24" xmlns="http://www.w3.org/2000/svg"><path d="m8.20710678 13.7928932c.36048396.360484.3882135.927715.08318861 1.3200062l-.08318861.0942074c-.36048396.3604839-.92771502.3882135-1.32000622.0831886l-.09420734-.0831886-4.5-4.5c-.36048396-.360484-.3882135-.92771504-.08318861-1.32000624l.08318861-.09420734 4.5-4.5c.39052429-.39052429 1.02368927-.39052429 1.41421356 0 .36048396.36048396.3882135.92771502.08318861 1.32000622l-.08318861.09420734-2.79310678 2.79289322h10.586c2.7614237 0 5 2.2385763 5 5 0 2.6887547-2.1223067 4.8818181-4.7831104 4.9953805l-.2168896.0046195h-2c-.5522847 0-1-.4477153-1-1 0-.5128358.3860402-.9355072.8833789-.9932723l.1166211-.0067277h2c1.6568542 0 3-1.3431458 3-3 0-1.5976809-1.24892-2.9036609-2.8237272-2.9949073l-.1762728-.0050927h-10.586z" fill="#010101"/></svg>
