<svg height="24" viewBox="0 0 24 24" width="24" xmlns="http://www.w3.org/2000/svg"><path d="m13 15c2.209139 0 4 1.790861 4 4v2h-10v-2c0-2.209139 1.790861-4 4-4zm0 2h-2c-1.0543618 0-1.91816512.8158778-1.99451426 1.8507377l-.00548574.1492623h6c0-1.0543618-.8158778-1.9181651-1.8507377-1.9945143zm-6-8v2h-1c-1.0543618 0-1.91816512.8158778-1.99451426 1.8507377l-.00548574.1492623h3v2h-5v-2c0-2.209139 1.790861-4 4-4zm11 0c2.209139 0 4 1.790861 4 4v2h-5v-2h3c0-1.0543618-.8158778-1.9181651-1.8507377-1.9945143l-.1492623-.0054857h-1v-2zm-6-1c1.6568542 0 3 1.34314575 3 3 0 1.6568542-1.3431458 3-3 3s-3-1.3431458-3-3c0-1.65685425 1.3431458-3 3-3zm0 2c-.5522847 0-1 .4477153-1 1s.4477153 1 1 1 1-.4477153 1-1-.4477153-1-1-1zm-5-8c1.65685425 0 3 1.34314575 3 3s-1.34314575 3-3 3-3-1.34314575-3-3 1.34314575-3 3-3zm10 0c1.6568542 0 3 1.34314575 3 3s-1.3431458 3-3 3-3-1.34314575-3-3 1.3431458-3 3-3zm-10 2c-.55228475 0-1 .44771525-1 1s.44771525 1 1 1 1-.44771525 1-1-.44771525-1-1-1zm10 0c-.5522847 0-1 .44771525-1 1s.4477153 1 1 1 1-.44771525 1-1-.4477153-1-1-1z" fill="#010101"/></svg>
