<svg height="16" viewBox="0 0 16 16" width="16" xmlns="http://www.w3.org/2000/svg"><path d="m2.35355339 1.64644661 12.00000001 11.99999999-.7071068.7071068-11.99999999-12.00000001zm.6493864 3.47590864.7075513.7087902c-.01386639.01232972-.0277086.02471271-.04152636.0371487-.52698321.47428489-.98237493.99834678-1.30566444 1.48328105-.23627001.35440502-.36330029.64436544-.36330029.6484248l.04168452.09115762c.05514008.1133692.16410243.32099717.32161577.55726718.32328951.48493427.77868123 1.00899616 1.30566444 1.4832811 1.29755366 1.1677982 2.81062471 1.8682941 4.33103527 1.8682941.54446674 0 1.08799226-.0898311 1.62101639-.2587842l.78038711.7816679c-.74216531.2955037-1.54908282.4771163-2.4014035.4771163-4 0-7-4-7-5 0-.50039185.75117601-1.75195971 2.00293979-2.87764475zm2.09845768 2.10139332.90260253.90169804.00148574.02381573c.07329517.99346547.87230813 1.78511707 1.86894373 1.84685965l.90282027.90221371c-.2478953.0663108-.5084439.1016643-.77724974.1016643-1.65685425 0-3-1.34314575-3-3 0-.26844503.03525862-.52865496.10139747-.77625143zm2.89860253-4.22374857c4 0 7 4 7 5 0 .50026123-.7507839 1.75130637-2.0019597 2.8767632l-.7085314-.7079087c.0138664-.0123297.0277086-.0247127.0415264-.0371486.5269832-.47428494.9823749-.99834683 1.3056644-1.4832811.23627-.35440502.3633003-.64436544.3633003-.6484248l-.0416845-.09115762c-.0551401-.1133692-.1641025-.32099717-.3216158-.55726718-.3232895-.48493427-.7786812-1.00899616-1.3056644-1.48328105-1.2975537-1.16779829-2.81062474-1.86829415-4.3310353-1.86829415-.54412538 0-1.08731072.08971845-1.62001383.25846652l-.78239168-.78095117c.74244103-.29573921 1.54970125-.47751535 2.40240551-.47751535zm0 2c1.65685425 0 3 1.34314575 3 3 0 .26844503-.0352586.52865496-.1013975.77625143l-.9036025-.90280482-.00048574-.02270895c-.07329908-.99351839-.87239325-1.7852014-1.86910299-1.84686951l-.90266101-.90220382c.2478953-.06631087.5084439-.10166433.77724974-.10166433z" fill="#010101"/></svg>
