<svg xmlns="http://www.w3.org/2000/svg" width="24" height="24" viewBox="0 0 24 24">
  <path fill="#010101" d="M5.44672852,16 L5.44672852,6.74511719 L5.24995117,6.74511719 L1.42231445,8.11621094 L1.42231445,9.60791016 L3.61225586,8.92871094 L3.61225586,16 L5.44672852,16 Z M14.6841309,16 L14.6841309,14.5209961 L10.710498,14.5209961 L12.8115723,12.3056641 C13.3870931,11.6751302 13.7933431,11.1228841 14.0303223,10.6489258 C14.2673014,10.1749674 14.385791,9.70947266 14.385791,9.25244141 C14.385791,8.41878255 14.1223633,7.7734375 13.5955078,7.31640625 C13.0686523,6.859375 12.3291504,6.63085938 11.377002,6.63085938 C10.7549316,6.63085938 10.1984538,6.76310221 9.70756836,7.02758789 C9.21668294,7.29207357 8.83688151,7.6570638 8.56816406,8.12255859 C8.29944661,8.58805339 8.16508789,9.10221354 8.16508789,9.66503906 L8.16508789,9.66503906 L10.0059082,9.66503906 C10.0059082,9.19954427 10.1254557,8.82397461 10.3645508,8.53833008 C10.6036458,8.25268555 10.9305501,8.10986328 11.3452637,8.10986328 C11.7303548,8.10986328 12.0265788,8.22729492 12.2339355,8.4621582 C12.4412923,8.69702148 12.5449707,9.01969401 12.5449707,9.43017578 C12.5449707,9.73063151 12.446582,10.0480143 12.2498047,10.3823242 C12.0530273,10.7166341 11.7493978,11.1080729 11.338916,11.5566406 L11.338916,11.5566406 L8.34916992,14.7431641 L8.34916992,16 L14.6841309,16 Z M19.2275879,16.1269531 C20.2135905,16.1269531 21.0059896,15.8793945 21.6047852,15.3842773 C22.2035807,14.8891602 22.5029785,14.2311198 22.5029785,13.4101562 C22.5029785,12.9023438 22.3749674,12.4622396 22.1189453,12.0898438 C21.8629232,11.7174479 21.4746582,11.438151 20.9541504,11.2519531 C21.3730957,11.0615234 21.7116374,10.7885742 21.9697754,10.4331055 C22.2279134,10.0776367 22.3569824,9.6883138 22.3569824,9.26513672 C22.3569824,8.44417318 22.0798014,7.79988607 21.5254395,7.33227539 C20.9710775,6.86466471 20.205127,6.63085938 19.2275879,6.63085938 C18.6647624,6.63085938 18.1495443,6.73876953 17.6819336,6.95458984 C17.2143229,7.17041016 16.8503906,7.46980794 16.5901367,7.8527832 C16.3298828,8.23575846 16.1997559,8.66845703 16.1997559,9.15087891 L16.1997559,9.15087891 L18.0342285,9.15087891 C18.0342285,8.84195964 18.1527181,8.59122721 18.3896973,8.39868164 C18.6266764,8.20613607 18.9207845,8.10986328 19.2720215,8.10986328 C19.6613444,8.10986328 19.9670898,8.21354167 20.1892578,8.42089844 C20.4114258,8.62825521 20.5225098,8.91813151 20.5225098,9.29052734 C20.5225098,9.67561849 20.4103678,9.98453776 20.186084,10.2172852 C19.9618001,10.4500326 19.6169108,10.5664062 19.151416,10.5664062 L19.151416,10.5664062 L18.173877,10.5664062 L18.173877,12.0009766 L19.1450684,12.0009766 C20.1606934,12.0009766 20.6685059,12.4622396 20.6685059,13.3847656 C20.6685059,13.765625 20.5447266,14.0713704 20.297168,14.302002 C20.0496094,14.5326335 19.7078939,14.6479492 19.2720215,14.6479492 C18.8911621,14.6479492 18.5706055,14.5379232 18.3103516,14.3178711 C18.0500977,14.097819 17.9199707,13.8142904 17.9199707,13.4672852 L17.9199707,13.4672852 L16.085498,13.4672852 C16.085498,14.2670898 16.3785482,14.910319 16.9646484,15.3969727 C17.5507487,15.8836263 18.3050618,16.1269531 19.2275879,16.1269531 Z"/>
</svg>
