<svg height="16" viewBox="0 0 16 16" width="16" xmlns="http://www.w3.org/2000/svg"><path d="m1 0v15h15v1h-16v-16zm5 11c.55228475 0 1 .4477153 1 1s-.44771525 1-1 1-1-.4477153-1-1 .44771525-1 1-1zm7-2c.5522847 0 1 .44771525 1 1 0 .5522847-.4477153 1-1 1s-1-.4477153-1-1c0-.55228475.4477153-1 1-1zm-10-1c.55228475 0 1 .44771525 1 1s-.44771525 1-1 1-1-.44771525-1-1 .44771525-1 1-1zm3 0c.55228475 0 1 .44771525 1 1s-.44771525 1-1 1-1-.44771525-1-1 .44771525-1 1-1zm4-4c.5522847 0 1 .44771525 1 1s-.4477153 1-1 1c-.55228475 0-1-.44771525-1-1s.44771525-1 1-1zm-4 0c.55228475 0 1 .44771525 1 1s-.44771525 1-1 1-1-.44771525-1-1 .44771525-1 1-1zm7-2c.5522847 0 1 .44771525 1 1s-.4477153 1-1 1-1-.44771525-1-1 .4477153-1 1-1z" fill="#010101" fill-rule="evenodd"/></svg>