<svg xmlns="http://www.w3.org/2000/svg" width="24" height="24" viewBox="0 0 24 24">
  <path fill="#010101" d="M4,2 L4,20 L22,20 L22,22 L2,22 L2,2 L4,2 Z M12.5,15 C13.3284271,15 14,15.6715729 14,16.5 C14,17.3284271 13.3284271,18 12.5,18 C11.6715729,18 11,17.3284271 11,16.5 C11,15.6715729 11.6715729,15 12.5,15 Z M18.5,13 C19.3284271,13 20,13.6715729 20,14.5 C20,15.3284271 19.3284271,16 18.5,16 C17.6715729,16 17,15.3284271 17,14.5 C17,13.6715729 17.6715729,13 18.5,13 Z M7.5,10 C8.32842712,10 9,10.6715729 9,11.5 C9,12.3284271 8.32842712,13 7.5,13 C6.67157288,13 6,12.3284271 6,11.5 C6,10.6715729 6.67157288,10 7.5,10 Z M12.5,10 C13.3284271,10 14,10.6715729 14,11.5 C14,12.3284271 13.3284271,13 12.5,13 C11.6715729,13 11,12.3284271 11,11.5 C11,10.6715729 11.6715729,10 12.5,10 Z M18.5,6 C19.3284271,6 20,6.67157288 20,7.5 C20,8.32842712 19.3284271,9 18.5,9 C17.6715729,9 17,8.32842712 17,7.5 C17,6.67157288 17.6715729,6 18.5,6 Z M12.5,3 C13.3284271,3 14,3.67157288 14,4.5 C14,5.32842712 13.3284271,6 12.5,6 C11.6715729,6 11,5.32842712 11,4.5 C11,3.67157288 11.6715729,3 12.5,3 Z"/>
</svg>
