<svg height="16" viewBox="0 0 16 16" width="16" xmlns="http://www.w3.org/2000/svg"><path d="m3.61230469 11v-6.3984375h-.06591797l-2.78613281 1.00634766v1.06347656l1.6171875-.58007813v4.90869141zm6.39179691 0v-.9799805h-2.80810551l1.20410157-1.27441403c.20800781-.21386719.39697265-.41821289.56689453-.61303711.16992187-.19482422.31567383-.38598633.43725586-.57348633s.21533203-.37719726.28125-.5690918c.06591797-.19189453.09887695-.39331054.09887695-.60424804 0-.27832031-.04394531-.53247071-.13183594-.76245117-.08789062-.22998047-.21606445-.42700196-.38452148-.59106446s-.37792969-.2915039-.62841797-.38232422c-.25048828-.09082031-.53833008-.13623046-.86352539-.13623046-.33984375 0-.6496582.05493164-.92944336.16479492s-.51855469.26000976-.71630859.45043945c-.19775391.19042969-.35083008.41235352-.45922852.66577148-.10839844.25341797-.16259766.5222168-.16259766.80639649h1.22607422c0-.33691406.08276367-.5991211.24829102-.7866211.16552734-.1875.41674804-.28125.75366211-.28125.12597656 0 .24096679.02050782.3449707.06152344.10400391.04101563.19335938.1003418.26806641.17797852s.13256836.17211914.17358398.28344726c.04101563.11132813.06152344.23876954.06152344.38232422 0 .09667969-.01538086.19628906-.04614258.29882813-.03076172.10253906-.08056641.21313476-.14941406.33178711-.06884766.11865234-.15893555.24975586-.27026367.39331054-.11132813.14355469-.2475586.30322266-.40869141.47900391l-2.06982422 2.22363285v.8349609zm2.9772461.0878906c.3164062 0 .6115722-.041748.885498-.1252441s.510498-.2050781.7097168-.3647461c.1992187-.159668.355957-.3566895.4702148-.5910645.1142579-.23437496.1713868-.50097652.1713868-.79980465 0-.16992187-.0205079-.33105469-.0615235-.48339844s-.1040039-.29223633-.1889648-.41967773c-.084961-.12744141-.192627-.2409668-.3229981-.34057617-.1303711-.09960938-.2849121-.18164063-.463623-.24609375.1523437-.07324219.2871094-.16040039.4042969-.26147461s.215332-.21166993.2944336-.33178711c.0791015-.12011719.1391601-.24682617.1801757-.38012696.0410157-.13330078.0615235-.26879882.0615235-.40649414 0-.29882812-.052002-.56176757-.1560059-.78881836-.1040039-.22705078-.2497558-.41748046-.4372558-.57128906-.1875-.15380859-.413086-.26953125-.6767579-.34716797-.2636718-.07763672-.5537109-.11645507-.8701171-.11645507-.2929688 0-.5661622.04248046-.8195801.1274414-.253418.08496094-.473877.2043457-.661377.3581543-.1875.15380859-.3347168.33764648-.4416504.55151367s-.1604004.45117187-.1604004.71191406h1.2216797c0-.1171875.0234375-.22265625.0703125-.31640625s.1105957-.17358398.1911621-.23950195.1743164-.11645508.28125-.15161133.2219239-.05273437.3449707-.05273437c.1494141 0 .2805176.02050781.3933106.06152343.112793.04101563.2058105.09887696.2790527.17358399s.1281739.1640625.1647949.2680664c.0366211.10400391.0549317.21899415.0549317.34497071 0 .27246094-.0805664.49291992-.2416992.66137695s-.4086914.25268555-.7426758.25268555h-.6635742v.94921875h.6635742c.1669922 0 .3171387.01904297.4504394.0571289.1333008.03808594.2475586.09667969.3427735.17578125.0952148.07910157.1677246.18017578.2175293.30322266s.074707.27099609.074707.44384766c0 .28125-.0878906.50390625-.2636719.66796875-.1757812.16406249-.4189453.24609379-.7294922.24609379-.140625 0-.2695312-.0212403-.3867187-.0637207-.1171875-.0424805-.2189941-.10107427-.3054199-.1757813s-.1530762-.1640625-.1999512-.2680664c-.046875-.10400391-.0703125-.2175293-.0703125-.34057618h-1.2216797c0 .31054688.060791.58007813.1823731.80859378.121582.2285156.2834472.4182129.4855957.5690918.2021484.1508789.4328613.2636718.6921386.3383789.2592774.074707.5251465.1120605.7976075.1120605z" fill="#010101"/></svg>
