<svg height="24" viewBox="0 0 24 24" width="24" xmlns="http://www.w3.org/2000/svg"><path d="m12.846647 2.79359739.0562135.10240014 8.4162187 17.67405937c.0639537.1343026.0971395.2811812.0971395.4299335 0 .5128359-.3860402.9355072-.8833788.9932723l-.1166212.0067277h-16.83243743c-.14875232 0-.29563098-.0331858-.42993358-.0971394-.46301923-.2204854-.67866084-.7507464-.51699207-1.2246091l.04406513-.108185 8.41621875-17.67405937c.0986902-.20724955.2656774-.37423668.4729269-.47292694.4630193-.22048535 1.0106041-.0536655 1.2765806.3705268zm-.846647 15.20640261c-.5522847 0-1 .4477153-1 1s.4477153 1 1 1 1-.4477153 1-1-.4477153-1-1-1zm1-9h-2v7h2z" fill="#010101"/></svg>
