<svg xmlns="http://www.w3.org/2000/svg" width="16" height="16" viewBox="0 0 16 16">
  <path fill="#010101" d="M8,1 C11.8659932,1 15,4.13400675 15,8 C15,11.8659932 11.8659932,15 8,15 C4.13400675,15 1,11.8659932 1,8 C1,4.13400675 4.13400675,1 8,1 Z M8,2 C7.06692945,2 6.18360472,2.2129872 5.39599116,2.59299626 L6,3.5 L7.5,3 L8,4 L6.5,4.5 L7,6.5 L6,7 L5.5,5.5 L4,7 L5.5,8.5 L7.5,8.5 L8,10.5 L6.16414471,13.7139325 C6.74276431,13.8996922 7.35966808,14 8,14 C9.49399301,14 10.8604524,13.4539635 11.9106951,12.5505735 L11.5,10.5 L9.5,9.5 L10.5,7 L13.9170737,7.00019152 C13.7841458,6.20770306 13.4958676,5.46788859 13.0846231,4.81313204 L11.5,6 L9.5,5.5 L9.95424704,2.32544921 C9.3416624,2.1145243 8.68420549,2 8,2 Z M2,8 C2,10.1777241 3.16019305,12.0844706 4.89619886,13.1358593 L4,10 L3.5,8.5 L2.02989973,7.39724088 C2.01012539,7.59547804 2,7.79655656 2,8 Z"/>
</svg>
