<svg height="16" viewBox="0 0 16 16" width="16" xmlns="http://www.w3.org/2000/svg"><path d="m5.7843055 2.58859116.06924789.05785545 5.00000001 5 .0118579.01226696c.0116495.01246775.0226684.02553219.033006.03914251l-.0448639-.05140947c.0268343.02683427.0499808.05595982.0694396.08674687.0069877.01112405.0137137.02275985.0199727.03467928.0072847.01385155.0136828.02758838.0194237.04153214.0052021.01257003.0100525.02585825.0143422.03939593.0048204.01536446.0088723.03072492.0121827.04621212.0023189.01061603.0042919.02160339.0058999.03270893.0025287.0177391.004124.03521087.0048052.05271161.0002441.00596173.0003806.01274818.0003806.01956651l-.0004207.02056948c-.0007023.01716529-.0022844.03430128-.004746.05133463l.0051667-.07190411c0 .03609704-.0038252.07130067-.0110922.10522765-.0033039.0152466-.0073558.03060706-.0121491.04578399-.0043168.01372521-.0091672.02701343-.0145509.04002492-.0055593.0135023-.0119574.02723913-.0190128.04072163-.0064883.01228848-.0132143.02392428-.020383.03525213-.0035452.00569159-.0074066.01152606-.0114032.01729518l-.0129915.01783842c-.0103376.01361032-.0213565.02667476-.033006.03914251l-.0118579.01226696-5.00000001 5.00000001c-.19526215.1952621-.51184463.1952621-.70710678 0-.17356635-.1735664-.1928515-.4429908-.05785545-.6378589l.05785545-.0692479 4.14655339-4.1464466h-7.793c-.27614237 0-.5-.22385763-.5-.5 0-.24545989.17687516-.44960837.41012437-.49194433l.08987563-.00805567h7.793l-4.14655339-4.14644661c-.17356635-.17356635-.1928515-.44299075-.05785545-.63785889l.05785545-.06924789c.17356635-.17356635.44299075-.1928515.63785889-.05785545zm4 0 .06924789.05785545 5.00000001 5c.1735663.17356635.1928515.44299075.0578554.63785889l-.0578554.06924789-5.00000001 5.00000001c-.19526215.1952621-.51184463.1952621-.70710678 0-.17356635-.1735664-.1928515-.4429908-.05785545-.6378589l.05785545-.0692479 4.64655339-4.6464466-4.64655339-4.64644661c-.17356635-.17356635-.1928515-.44299075-.05785545-.63785889l.05785545-.06924789c.17356635-.17356635.44299075-.1928515.63785889-.05785545z" fill="#010101"/></svg>
