<svg height="24" viewBox="0 0 24 24" width="24" xmlns="http://www.w3.org/2000/svg"><path d="m12 3c5.3619629 0 9 3.29824786 9 9 0 2.6343747-1.4925002 4.5-4 4.5-1.5730044 0-2.5883099-.5015511-3.0863095-1.6422965-.5992412.6924345-1.4245259 1.1422965-2.4136905 1.1422965-2.12991049 0-3.5-2.0857626-3.5-4.2 0-2.03390854 1.3772251-3.8 3.5-3.8.7865299 0 1.4707072.24245762 2.0204005.6511605-.0055574-.19913179-.0118201-.40097731-.0197153-.61414884-.020441-.55190634.4103968-1.01588552.9623031-1.03632649.5519064-.02044098 1.0158856.41039683 1.0363265.96230317l.0220339.73778109c.0070652.32089854.0106972.64215463.0117108 1.00255397l-.0063444 2.1699278c.0052717 1.297099.0570603 1.7900097.2100419 2.1609722.1373733.3331141.3987111.4657766 1.263243.4657766 1.2925002 0 2-.8843747 2-2.5 0-4.55105535-2.7012377-7-7-7-3.86599325 0-7 3.13400675-7 7 0 3.7854517 3.00478338 6.8690987 6.7593502 6.995941l.2406498.004059h4.5c.5522847 0 1 .4477153 1 1 0 .5128358-.3860402.9355072-.8833789.9932723l-.1166211.0067277h-4.5c-4.97056275 0-9-4.0294373-9-9 0-4.97056275 4.02943725-9 9-9zm-.5 7c-.8940412 0-1.5.7770543-1.5 1.8 0 1.1426168.6945707 2.2 1.5 2.2s1.5-1.0573832 1.5-2.2c0-1.0229457-.6059588-1.8-1.5-1.8z" fill="#f00"/></svg>