<svg height="24" viewBox="0 0 24 24" width="24" xmlns="http://www.w3.org/2000/svg"><path d="m12 3c4.9705627 0 9 4.02943725 9 9 0 4.9705627-4.0294373 9-9 9-4.97056275 0-9-4.0294373-9-9 0-4.97056275 4.02943725-9 9-9zm-7 9c0 3.8659932 3.13400675 7 7 7 1.5719021 0 3.0227913-.5181181 4.1912056-1.3928924l-9.79831321-9.79831323c-.87477432 1.16841436-1.39289239 2.61930353-1.39289239 4.19120563zm7-7c-1.5719021 0-3.02279127.51811807-4.19120563 1.39289239l9.79831323 9.79831321c.8747743-1.1684143 1.3928924-2.6193035 1.3928924-4.1912056 0-3.86599325-3.1340068-7-7-7z" fill="#f00"/></svg>