<svg height="24" viewBox="0 0 24 24" width="24" xmlns="http://www.w3.org/2000/svg"><path d="m12 8c3.8659932 0 7 3.1340068 7 7s-3.1340068 7-7 7c-3.86599325 0-7-3.1340068-7-7s3.13400675-7 7-7zm0 2c-2.76142375 0-5 2.2385763-5 5s2.23857625 5 5 5c2.7614237 0 5-2.2385763 5-5s-2.2385763-5-5-5zm-1 2 2 3v-3h2v6h-2l-2-3v3h-2v-6zm1.6128994-9.79029539.0942074.08318861 3.5 3.5c.3905243.39052429.3905243 1.02368927 0 1.41421356-.360484.36048396-.927715.3882135-1.3200062.08318861l-.0942074-.08318861-2.7928932-2.79210678-2.79289322 2.79210678c-.36048396.36048396-.92771502.3882135-1.32000622.08318861l-.09420734-.08318861c-.36048396-.36048396-.3882135-.92771502-.08318861-1.32000622l.08318861-.09420734 3.49999998-3.5c.360484-.36048396.927715-.3882135 1.3200062-.08318861z" fill="#010101"/></svg>
