<svg height="16" viewBox="0 0 16 16" width="16" xmlns="http://www.w3.org/2000/svg"><path d="m13 2c.5522847 0 1 .44771525 1 1v10c0 .5522847-.4477153 1-1 1h-10c-.55228475 0-1-.4477153-1-1v-10c0-.55228475.44771525-1 1-1zm-8 6.707-2 1.999v2.294h10v-.293l-3-3-2 2.0001068zm8-5.707h-10v6.292l2-1.99910678 3 3.00010678 2-2.00010678 3 3.00010678zm-2.5 1c.8284271 0 1.5.67157288 1.5 1.5s-.6715729 1.5-1.5 1.5c-.82842712 0-1.5-.67157288-1.5-1.5s.67157288-1.5 1.5-1.5zm0 1c-.2761424 0-.5.22385763-.5.5s.2238576.5.5.5.5-.22385763.5-.5-.2238576-.5-.5-.5z" fill="#010101"/></svg>
