<svg height="16" viewBox="0 0 16 16" width="16" xmlns="http://www.w3.org/2000/svg"><path d="m7 9c1.01441552 0 1.94063467.37761354 2.64575985.99994303l-4.64575985.00005697c-1.59768088 0-2.90366088 1.24892-2.99490731 2.8237272l-.00509269.1762728v1h8v-1h1v2h-10v-2c0-2.209139 1.790861-4 4-4zm5.7843055-.41140884.0692479.05785545 2.5 2.49999999.0118579.012267c.0116495.0124677.0226684.0255322.033006.0391425l-.0448639-.0514095c.0268343.0268343.0499808.0559598.0694396.0867469.0069877.011124.0137137.0227598.0199727.0346793.0072847.0138515.0136828.0275883.0194237.0415321.0052021.01257.0100525.0258582.0143422.0393959.0044088.0140613.008171.0280885.0113136.0422256.0026891.0118576.00496.0242018.006769.0366955.0025287.0177391.004124.0352109.0048052.0527116.0002441.0059617.0003806.0127482.0003806.0195665l-.0004207.0205695c-.0007023.0171653-.0022844.0343013-.004746.0513346l.0051667-.0719041c0 .036097-.0038252.0713007-.0110922.1052277-.0033039.0152466-.0073558.030607-.0121491.0457839-.0043168.0137253-.0091672.0270135-.0145509.040025-.0055593.0135023-.0119574.0272391-.0190128.0407216-.0064883.0122885-.0132143.0239243-.020383.0352521-.0035452.0056916-.0074066.0115261-.0114032.0172952l-.0129915.0178384c-.0103376.0136103-.0213565.0266748-.033006.0391425l-.0118579.012267-2.5 2.5c-.1952622.1952621-.5118446.1952621-.7071068 0-.1735663-.1735664-.1928515-.4429908-.0578554-.6378589l.0578554-.0692479 1.6455534-1.6464466h-6.792c-.27614237 0-.5-.2238576-.5-.5 0-.2454599.17687516-.4496084.41012437-.4919443l.08987563-.0080557h6.794l-1.6475534-1.64644661c-.1735663-.17356635-.1928515-.44299075-.0578554-.63785889l.0578554-.06924789c.1735664-.17356635.4429908-.1928515.6378589-.05785545zm-6.7843055-6.58859116c1.65685425 0 3 1.34314575 3 3s-1.34314575 3-3 3-3-1.34314575-3-3 1.34314575-3 3-3zm0 1c-1.1045695 0-2 .8954305-2 2s.8954305 2 2 2 2-.8954305 2-2-.8954305-2-2-2z" fill="#010101"/></svg>
