<svg height="24" viewBox="0 0 24 24" width="24" xmlns="http://www.w3.org/2000/svg"><path d="m19 2c1.1045695 0 2 .8954305 2 2v16c0 1.1045695-.8954305 2-2 2h-9v-10h2v8h7v-16h-7v2h-2v-4zm-12.29289322 2.29289322c.36048396.36048396.3882135.92771502.08318861 1.32000622l-.08318861.09420734-2.29310678 2.29289322h11.586c.5522847 0 1 .44771525 1 1 0 .51283584-.3860402.93550716-.8833789.99327227l-.1166211.00672773h-11.586l2.29310678 2.2928932c.36048396.360484.3882135.927715.08318861 1.3200062l-.08318861.0942074c-.36048396.3604839-.92771502.3882135-1.32000622.0831886l-.09420734-.0831886-4-4.00000002c-.36048396-.36048396-.3882135-.92771502-.08318861-1.32000622l.08318861-.09420734 4-4c.39052429-.39052429 1.02368927-.39052429 1.41421356 0z" fill="#010101"/></svg>
