<svg height="24" viewBox="0 0 24 24" width="24" xmlns="http://www.w3.org/2000/svg"><path d="m10 17.5857864c0 .2652165-.10535684.5195704-.29289322.7071068-.36048396.360484-.92771502.3882135-1.32000622.0831886l-.09420734-.0831886-5.58578644-5.5857864c-.36048396-.360484-.3882135-.927715-.08318861-1.3200062l.08318861-.0942074 5.58578644-5.58578642c.18753638-.18753638.44189029-.29289322.70710678-.29289322.51283584 0 .93550716.38604019.99327227.88337888l.00672773.11662112-.00078644 1.585 6.00078644.00078644.4701846.00481699c6.4843669.13734182 5.5298154 3.24805661 5.5298154 13.99518301h-1c0-4-1.6666667-6-5-6l-6.00078644-.0007864zm-2-8.7577864-3.171 3.172 3.171 3.171v-1.171h8c1.5976862 0 2.9395663.3696997 4.0071894 1.0693722l.0318106.0216278-.0152066-.8964783c-.0425828-1.6032978-.1585816-2.3929588-.3916155-2.9850063l-.0691407-.1628591c-.3203464-.7023892-1.0561873-1.0225908-3.2976617-1.0453459l-6.2653755-.0013104h-2z" fill="#010101"/></svg>
