<svg height="24" viewBox="0 0 24 24" width="24" xmlns="http://www.w3.org/2000/svg"><path d="m10 3c3.8659932 0 7 3.13400675 7 7 0 1.5763766-.521072 3.0310504-1.4003714 4.2011767.0041847.0015255.0087394.0050045.0132708.0085279l.0942074.0831886 5 5c.3905243.3905243.3905243 1.0236893 0 1.4142136-.360484.3604839-.927715.3882135-1.3200062.0831886l-.0942074-.0831886-5-5c-.0342043-.0342044-.0654128-.07027-.0936256-.107871-1.1682172.8796922-2.622891 1.4007642-4.1992676 1.4007642-3.86599325 0-7-3.1340068-7-7 0-3.86599325 3.13400675-7 7-7zm0 2c-2.76142375 0-5 2.23857625-5 5 0 2.7614237 2.23857625 5 5 5 2.7614237 0 5-2.2385763 5-5 0-2.76142375-2.2385763-5-5-5z" fill="#010101"/></svg>
