<svg height="16" viewBox="0 0 16 16" width="16" xmlns="http://www.w3.org/2000/svg"><path d="m12 7 3 7h-1l-.857-2h-3.286l-.857 2h-1l3-7zm-.5 1.167-1.214 2.833h2.428zm-5.5-6.167v1h4v1l-1.61050253.00012826c-.32746396 1.09295291-1.12112216 2.3364984-2.37943722 3.74269715.13053964.13691367.25884016.26374173.38396659.38171808.45560932.4295745.85329713.72520825 1.15536669.85870769l.10872035.04240717-.31622776.9486833c-.48364539-.16121513-1.02398365-.54717103-1.63387215-1.12220875-.12502614-.11788179-.25219999-.24311898-.38126016-.37514636-.49884635.51334839-1.05573231 1.04903363-1.67023259 1.60570466l-.3243393.2910135-.66436384-.74740936c.74538357-.66256317 1.40546677-1.29233911 1.98037652-1.88833204l.10645653.12405908c-.40362676-.45345723-.80068805-.93780812-1.17492607-1.42201183l-.43349285-.57575456-.05309895-.07363689.81373348-.5812382.26692146.36122825c.05906907.07816162.12500203.16451307.19715811.25787142.30766735.39807197.63115087.79603707.95937974 1.17385974 1.01318308-1.14327655 1.68063025-2.14635703 2.00437452-3.00279559l-6.33470057.00045528v-1h4v-1z" fill="#010101"/></svg>
