<svg height="16" viewBox="0 0 16 16" width="16" xmlns="http://www.w3.org/2000/svg"><path d="m4.85355339 10.1464466c.17356635.1735664.1928515.4429908.05785545.6378589l-.05785545.0692479c-.17356635.1735663-.44299075.1928515-.63785889.0578554l-.06924789-.0578554-3-3.00000001-.01185786-.01226696c-.01164955-.01246775-.0226685-.02553219-.03300602-.03914251l.04486388.05140947c-.02711974-.02711974-.05047285-.05657977-.07005934-.08773-.00677705-.01084969-.01328448-.02213961-.01935293-.03369615-.00728473-.01385155-.01368287-.02758838-.01942378-.04153214-.00520211-.01257003-.01005246-.02585825-.01434214-.03939593-.0048204-.01536446-.00887229-.03072492-.01218274-.04621212-.00219399-.01003279-.00407892-.02042325-.00563761-.03092012-.00306057-.02082959-.00483707-.04166575-.00531569-.06252616-.00009016-.0039662-.00013238-.00774855-.00013238-.01154077l.00011036-.01053735c.000444-.02119563.00222784-.04236841.00535151-.06338042l-.00546187.07391777c0-.03609704.00382515-.07130067.01109223-.10522765.0033039-.0152466.00735579-.03060706.01214912-.04578399.00431675-.01372521.0091671-.02701343.01455089-.04002492.00555923-.0135023.01195737-.02723913.01901273-.04072163.00648837-.01228848.01321437-.02392428.02038304-.03525213.00354518-.00569159.00740656-.01152606.01140315-.01729518l.01299157-.01783842c.01033752-.01361032.02135647-.02667476.03300602-.03914251l.01185786-.01226696 3-3c.19526215-.19526215.51184463-.19526215.70710678 0 .17356635.17356635.1928515.44299075.05785545.63785889l-.05785545.06924789-2.14755339 2.14644661h9.294c1.6568542 0 3 1.34314575 3 3 0 1.5976809-1.24892 2.9036609-2.8237272 2.9949073l-.1762728.0050927h-2.5c-.27614237 0-.5-.2238576-.5-.5 0-.2454599.17687516-.4496084.41012437-.4919443l.08987563-.0080557h2.5c1.1045695 0 2-.8954305 2-2 0-1.0543618-.8158778-1.91816512-1.8507377-1.99451426l-.1492623-.00548574h-9.292z" fill="#010101"/></svg>
