<svg height="24" viewBox="0 0 24 24" width="24" xmlns="http://www.w3.org/2000/svg"><path d="m12 3c4.9705627 0 9 4.02943725 9 9 0 4.9705627-4.0294373 9-9 9-4.97056275 0-9-4.0294373-9-9 0-4.97056275 4.02943725-9 9-9zm0 2c-1.4214723 0-2.74398497.42369615-3.84813698 1.15168729l.49458359.49475932c.19526215.19526215.51184463.19526215.70710678 0l.5-.5c.09376819-.09376819.22094511-.14644661.35355341-.14644661h.8586347c.2761423 0 .5.22385763.5.5 0 .09871249-.0292191.19521634-.0839749.2773501l-1.4337257 2.15058862c-.0317906.04768582-.05514614.10048224-.06904615.15608229l-.3843117 1.53724679c-.05564588.2225835-.25563743.3787322-.48507125.3787322h-.6096118c-.27614237 0-.5-.2238576-.5-.5v-.5c0-.22876383-.18544973-.41421356-.41421356-.41421356-.10985627 0-.21521311.04364023-.29289322.12132034l-.93933983.93933982c-.19526215.1952622-.19526215.5118446 0 .7071068l1.5 1.5c.09376819.0937682.22094515.1464466.35355339.1464466h1.48387623c.18938602 0 .36251759.1070012.44721359.2763932l.75 1.5c.0703819.1407637.0703819.3064499 0 .4472136l-1.6129125 3.2262985c.8374684.3542193 1.7582176.5500947 2.7247159.5500947 1.4987727 0 2.8875303-.4710308 4.0263138-1.2731335-.018048-.0480623-.0263138-.0991944-.0263138-.152257v-2.2142299c0-.2152152-.137715-.4062846-.3418861-.4743416l-2.1837723-.7279241c-.2619716-.0873239-.4035516-.3704839-.3162277-.6324555l.7279241-2.1837723c.068057-.2041711.2591264-.3418861.4743416-.3418861l4.5687304-.0000082c-.112923-.7894505-.3575681-1.53640917-.7109574-2.21789809l-.9283082.92806184c-.1685321.16853219-.4325921.19467928-.6309034.06247176l-2.2429159-1.49527721c-.2297643-.15317623-.2918512-.4636109-.138675-.69337525l1.1325073-1.69875574c-1.0089794-.56385547-2.1718892-.88521911-3.4098574-.88521911zm-7 7.009c0 2.1128689.9440931 4.014233 2.43513438 5.2979474l-.39780876-1.1949705c-.0245464-.0736392-.06590082-.1405521-.12078825-.1954395l-.77009076-.7700908c-.09376819-.0937682-.14644661-.2209451-.14644661-.3535534v-1.5857864c0-.1326083-.05267842-.2597852-.14644661-.3535534l-.79617957-.7961796z" fill="#010101"/></svg>
