<?xml version="1.0" encoding="UTF-8"?>
<svg width="18px" height="18px" viewBox="0 0 18 18" version="1.1" xmlns="http://www.w3.org/2000/svg" xmlns:xlink="http://www.w3.org/1999/xlink">
    <!-- Generator: Sketch 58 (84663) - https://sketch.com -->
    <g id="checkbox-regular-checked" stroke="none" stroke-width="1" fill="none" fill-rule="evenodd">
        <rect id="checkbox-fill" fill="#00897B" x="0" y="0" width="18" height="18" rx="3"></rect>
        <path d="M3,0 L15,0 C16.6568542,0 18,1.34314575 18,3 L18,15 C18,16.6568542 16.6568542,18 15,18 L3,18 C1.34314575,18 0,16.6568542 0,15 L0,3 C0,1.34314575 1.34314575,0 3,0 Z M3,2 C2.44771525,2 2,2.44771525 2,3 L2,15 C2,15.5522847 2.44771525,16 3,16 L15,16 C15.5522847,16 16,15.5522847 16,15 L16,3 C16,2.44771525 15.5522847,2 15,2 L3,2 Z" id="checkbox-border" fill="#00695C" fill-rule="nonzero"></path>
        <path d="M4.74451387,8.02852516 C4.39595738,8.11985643 4.12375034,8.39235188 4.03251575,8.74127768 C3.94128115,9.09020348 4.04521722,9.46125864 4.30437605,9.71182782 L7.29823844,12.7078028 C7.68753993,13.0973991 8.31859767,13.0973991 8.70789916,12.7078028 L13.695624,6.71585285 C13.9547828,6.46528367 14.0587189,6.09422851 13.9674843,5.74530271 C13.8762497,5.39637691 13.6040426,5.12388146 13.2554861,5.0325502 C12.9069296,4.94121893 12.5362672,5.04526513 12.2859632,5.30469855 L8.0030688,10.5910713 L5.71403676,8.30067351 C5.46373279,8.0412401 5.09307036,7.9371939 4.74451387,8.02852516 Z" id="check" fill="#FFFFFF" fill-rule="nonzero"></path>
    </g>
</svg>
