<?xml version="1.0" encoding="UTF-8"?>
<svg width="14px" height="14px" viewBox="0 0 14 14" version="1.1" xmlns="http://www.w3.org/2000/svg" xmlns:xlink="http://www.w3.org/1999/xlink">
    <!-- Generator: Sketch 58 (84663) - https://sketch.com -->
    <g id="checkbox-dense-checked" stroke="none" stroke-width="1" fill="none" fill-rule="evenodd">
        <rect id="checkbox-fill" fill="#009688" x="0" y="0" width="14" height="14" rx="2"></rect>
        <path d="M2,0 L12,0 C13.1045695,0 14,0.8954305 14,2 L14,12 C14,13.1045695 13.1045695,14 12,14 L2,14 C0.8954305,14 0,13.1045695 0,12 L0,2 C0,0.8954305 0.8954305,0 2,0 Z M2,1 C1.44771525,1 1,1.44771525 1,2 L1,12 C1,12.5522847 1.44771525,13 2,13 L12,13 C12.5522847,13 13,12.5522847 13,12 L13,2 C13,1.44771525 12.5522847,1 12,1 L2,1 Z" id="checkbox-border" fill="#004D40" fill-rule="nonzero"></path>
        <path d="M10.3520005,3.30015877 L5.54268293,8.03252726 L3.64634146,6.16652726 L2.28668615,7.5044281 L5.54310367,10.7010587 L11.7145993,4.628307 L10.3520005,3.30015877 Z M5.54268293,9.43547274 L5.61193184,9.36733181 L5.54226219,9.29894127 L5.47309681,9.367 L5.54268293,9.43547274 Z M10.6496329,4.41023392 L10.6495057,4.35652297 L10.5648412,4.35672356 L10.2854007,4.631693 L10.3553166,4.69984123 L10.6496329,4.41023392 Z M3.42891348,7.22439304 L3.35030905,7.22439304 L3.35034135,7.27820863 L3.64634146,7.56947274 L3.71331385,7.5035719 L3.42891348,7.22439304 Z" id="check" fill="#FFFFFF" fill-rule="nonzero"></path>
    </g>
</svg>
