<?xml version="1.0" encoding="UTF-8"?>
<svg width="18px" height="18px" viewBox="0 0 18 18" version="1.1" xmlns="http://www.w3.org/2000/svg" xmlns:xlink="http://www.w3.org/1999/xlink">
    <!-- Generator: Sketch 58 (84663) - https://sketch.com -->
    <g id="checkbox-regular-indeterminate" stroke="none" stroke-width="1" fill="none" fill-rule="evenodd">
        <rect id="checkbox-fill" fill="#00897B" x="0" y="0" width="18" height="18" rx="3"></rect>
        <rect id="dash" fill="#FFFFFF" x="4" y="8" width="10" height="2" rx="1"></rect>
        <path d="M3,0 L15,0 C16.6568542,0 18,1.34314575 18,3 L18,15 C18,16.6568542 16.6568542,18 15,18 L3,18 C1.34314575,18 0,16.6568542 0,15 L0,3 C0,1.34314575 1.34314575,0 3,0 Z M3,2 C2.44771525,2 2,2.44771525 2,3 L2,15 C2,15.5522847 2.44771525,16 3,16 L15,16 C15.5522847,16 16,15.5522847 16,15 L16,3 C16,2.44771525 15.5522847,2 15,2 L3,2 Z" id="checkbox-border" fill="#00695C" fill-rule="nonzero"></path>
    </g>
</svg>
